<?xml version="1.0" encoding="UTF-8" standalone="no"?>
<!-- Created with Inkscape (http://www.inkscape.org/) -->

<svg
   width="89.346413mm"
   height="71.08078mm"
   viewBox="0 0 89.346413 71.08078"
   version="1.1"
   id="svg1"
   inkscape:version="1.4.2 (f4327f4, 2025-05-13)"
   sodipodi:docname="carrito.svg"
   xmlns:inkscape="http://www.inkscape.org/namespaces/inkscape"
   xmlns:sodipodi="http://sodipodi.sourceforge.net/DTD/sodipodi-0.dtd"
   xmlns="http://www.w3.org/2000/svg"
   xmlns:svg="http://www.w3.org/2000/svg">
  <sodipodi:namedview
     id="namedview1"
     pagecolor="#ffffff"
     bordercolor="#000000"
     borderopacity="0.25"
     inkscape:showpageshadow="2"
     inkscape:pageopacity="0.0"
     inkscape:pagecheckerboard="0"
     inkscape:deskcolor="#d1d1d1"
     inkscape:document-units="mm"
     inkscape:zoom="0.68862935"
     inkscape:cx="168.45056"
     inkscape:cy="134.3248"
     inkscape:window-width="1920"
     inkscape:window-height="991"
     inkscape:window-x="-9"
     inkscape:window-y="-9"
     inkscape:window-maximized="1"
     inkscape:current-layer="layer1" />
  <defs
     id="defs1" />
  <g
     inkscape:label="Capa 1"
     inkscape:groupmode="layer"
     id="layer1"
     transform="translate(-60.324998,-112.97708)">
    <path
       style="display:inline;fill:#000000"
       d="m 90.9005,183.29583 c -1.44344,-0.9154 -2.08326,-2.14047 -2.08326,-3.98882 0,-1.38828 0.64235,-3.04517 1.43587,-3.70374 0.67752,-0.56229 0.49796,-0.67511 -1.15014,-0.72265 -1.85776,-0.0536 -2.51923,-0.36133 -3.20932,-1.49309 -1.05185,-1.72509 -0.32476,-3.24252 2.24996,-4.69559 0.74838,-0.42237 1.63548,-1.1396 1.97132,-1.59385 0.62635,-0.84718 2.74535,-1.97845 3.19052,-1.70332 0.13683,0.0846 1.80607,-0.32439 3.70943,-0.9088 7.27269,-2.23301 10.57841,-2.77826 18.65757,-3.07743 3.35019,-0.12405 5.22036,-0.0433 8.96466,0.38703 4.98768,0.57325 5.71971,0.83026 5.71971,2.00813 0,1.49484 -2.02391,2.3354 -6.74687,2.80206 -5.96995,0.58987 -26.66753,4.47226 -27.31984,5.12457 -0.32669,0.32669 0.14566,0.35599 2.18442,0.1355 6.42219,-0.69454 31.84903,-0.46021 34.61371,0.319 0.70191,0.19783 1.26948,0.47875 1.26125,0.62427 -0.008,0.14552 -0.76111,0.32411 -1.67308,0.39687 l -1.65813,0.1323 0.80983,0.44392 c 2.86568,1.57088 3.73098,4.87975 1.93642,7.40472 -0.66147,0.9307 -2.52162,1.80865 -3.83206,1.80865 -1.39031,0 -3.26449,-0.9749 -3.99884,-2.08009 -1.60338,-2.41309 -0.79555,-5.61222 1.71121,-6.77661 0.61847,-0.28727 1.12448,-0.61469 1.12448,-0.7276 0,-0.62758 -32.75604,0.49677 -33.45656,1.1484 -0.1563,0.1454 -0.13477,0.23381 0.0569,0.23381 0.4114,0 2.1231,1.51824 2.49486,2.21288 0.83985,1.56927 0.69291,3.77848 -0.3486,5.24115 -1.35266,1.89962 -4.48933,2.39668 -6.61546,1.04833 z m 3.68063,-1.3784 c 2.13708,-0.74499 2.22641,-3.90957 0.14048,-4.97632 -1.05471,-0.53939 -1.9374,-0.34669 -2.92197,0.63788 -0.83892,0.83892 -0.91888,1.04191 -0.78971,2.00491 0.15139,1.12873 0.76064,2.00633 1.64377,2.36778 0.72823,0.29806 0.98736,0.29346 1.92743,-0.0342 z m -1.52001,-1.95187 c -0.50853,-0.61274 -0.22587,-1.33563 0.52224,-1.33563 0.49205,0 0.68034,0.15916 0.74713,0.63154 0.13241,0.93641 -0.69546,1.39561 -1.26937,0.70409 z m 38.52151,0.44443 c 1.41982,-1.1501 1.44979,-2.9825 0.0678,-4.14536 -1.18523,-0.9973 -2.42684,-0.92001 -3.56903,0.22218 -0.57038,0.57037 -0.89959,1.15614 -0.89959,1.60064 0,0.86976 0.64048,2.14671 1.25677,2.50566 0.73424,0.42766 2.51829,0.32375 3.14404,-0.18312 z m -2.39248,-1.81304 c -0.22442,-0.58483 0.45507,-1.28426 1.03242,-1.06271 0.26858,0.10306 0.40343,0.39629 0.35125,0.76378 -0.10551,0.74297 -1.12847,0.96397 -1.38367,0.29893 z m 1.96042,-6.44931 c -0.98784,-0.31636 -7.63328,-0.31636 -7.14375,0 0.21828,0.14107 2.06375,0.24644 4.10104,0.23416 2.26075,-0.0136 3.44642,-0.10487 3.04271,-0.23416 z M 95.8287,160.09383 c -0.66844,-0.35531 -1.03248,-0.37515 -2.30597,-0.12566 -1.24765,0.24442 -1.64602,0.22707 -2.27696,-0.0992 -0.89477,-0.46271 -1.19322,-1.10927 -3.49192,-7.56508 -1.13218,-3.17966 -1.89684,-4.91372 -2.44082,-5.5352 -0.72383,-0.82694 -0.77823,-1.0209 -0.63079,-2.24896 0.14131,-1.17705 -0.0399,-1.95188 -1.45919,-6.23875 -0.89129,-2.69214 -1.71842,-5.01978 -1.83805,-5.17254 -0.11964,-0.15276 -0.81635,-0.43122 -1.54826,-0.6188 -3.58562,-0.91897 -3.49581,-4.62924 0.15672,-6.47399 2.97633,-1.50323 9.45468,-3.37491 14.77691,-4.26924 2.18281,-0.36679 4.51097,-0.83197 5.17369,-1.03374 2.05754,-0.62643 6.82974,-1.02357 10.19801,-0.84868 5.92049,0.30742 7.12284,0.30025 11.88038,-0.0709 5.37253,-0.41914 16.01684,-0.53718 18.72468,-0.20765 1.28046,0.15583 2.00521,0.39795 2.54118,0.84893 l 0.74982,0.63094 1.0307,-0.53372 c 1.68546,-0.87277 4.60258,-0.18398 4.60258,1.08676 0,1.30451 -1.76977,1.97438 -3.16933,1.19962 -0.56322,-0.31178 -0.76697,-0.30552 -1.44355,0.0444 -0.55039,0.28462 -0.81786,0.31711 -0.88762,0.10782 -0.11971,-0.35912 -0.8495,-0.40464 -0.8495,-0.053 0,0.13561 -0.38696,0.52256 -0.8599,0.85989 -0.77335,0.55161 -1.23269,0.62665 -4.56406,0.74562 l -3.70417,0.1323 -0.19399,3.67908 c -0.1067,2.02349 -0.44265,5.04728 -0.74657,6.71954 -0.59877,3.29469 -0.55864,3.46838 0.80827,3.49845 0.3638,0.008 1.55443,0.17164 2.64583,0.36365 1.70794,0.30046 2.09905,0.2946 2.80758,-0.042 0.7615,-0.36179 0.92745,-0.711 2.21416,-4.65908 1.1265,-3.45651 2.62166,-6.78151 3.04945,-6.78151 0.10704,0 -0.73082,3.77896 -1.5652,7.05941 -0.72714,2.85886 -0.8523,4.18314 -0.42057,4.44996 0.47905,0.29607 0.27632,1.20502 -0.41079,1.84181 -0.51954,0.4815 -1.0415,1.83245 -2.26229,5.85534 -2.53175,8.34289 -3.62382,10.6914 -4.97159,10.6914 -0.8214,0 -0.90541,-0.46232 -0.1714,-0.94326 0.40938,-0.26824 0.77637,-0.86096 0.94915,-1.53298 0.15493,-0.6026 0.92195,-3.47689 1.70447,-6.38731 1.96635,-7.31338 1.94452,-7.1506 1.02094,-7.61313 -0.5903,-0.29562 -1.25958,-0.33074 -3.09326,-0.1623 -1.28699,0.11822 -2.56082,0.28503 -2.83074,0.3707 -0.57768,0.18335 -0.58496,0.20539 -1.30895,3.96515 -0.76086,3.95115 -0.57924,3.69082 -2.05364,2.94368 l -1.26832,-0.6427 0.30237,-3.00257 c 0.1663,-1.65142 0.21221,-3.10225 0.10203,-3.22407 -0.20362,-0.22512 -8.90457,0.26895 -9.32629,0.52958 -0.12664,0.0783 -0.16635,0.30887 -0.0882,0.51243 0.19019,0.49563 0.21143,0.50154 -1.99516,-0.55593 -2.24277,-1.07482 -2.56614,-1.11151 -3.47761,-0.39455 -0.37162,0.29231 -1.01275,0.58473 -1.42474,0.64982 -0.41199,0.0651 -1.73351,0.25753 -2.93672,0.42765 -1.20321,0.17012 -2.24682,0.40505 -2.31913,0.52206 -0.0723,0.117 0.22713,2.69172 0.66544,5.72158 0.4383,3.02987 0.7973,5.59815 0.79778,5.70729 4.7e-4,0.10914 1.66214,0.19844 3.69259,0.19844 h 3.69173 l 0.27611,0.99219 c 0.34814,1.25099 -0.0897,1.65007 -1.82316,1.66181 -0.66341,0.004 -2.09462,0.12346 -3.18047,0.26437 -1.6651,0.21607 -2.06356,0.36818 -2.5445,0.97135 -0.55572,0.69693 -0.58777,0.70368 -1.25758,0.2648 -0.37803,-0.24769 -0.94071,-0.45035 -1.25039,-0.45035 -1.11974,0 -5.96248,1.09772 -6.99618,1.58585 -1.62115,0.76554 -2.30135,0.84764 -3.175,0.38325 z m -2.66747,-3.45262 c 0.23018,-0.0883 0.41851,-0.29828 0.41851,-0.46655 0,-0.42095 -1.86291,-3.15439 -2.03352,-2.98378 -0.13453,0.13453 0.93162,3.61093 1.10741,3.61093 0.049,0 0.27741,-0.0723 0.5076,-0.1606 z m 10.20809,-1.72535 c 1.23693,-0.16776 2.32908,-0.3776 2.427,-0.46631 0.28302,-0.25637 -1.7405,-10.47858 -2.17061,-10.96528 -0.1543,-0.1746 -7.07049,1.017 -7.33618,1.26396 -0.0632,0.0588 2.43341,9.61628 2.72555,10.43379 0.0942,0.26354 0.40397,0.31945 1.11779,0.20172 0.54312,-0.0896 1.99953,-0.30012 3.23645,-0.46788 z m -3.32978,-14.40948 c 1.44284,-0.20484 2.66564,-0.41473 2.71734,-0.46643 0.0925,-0.0925 -1.9735,-12.90229 -2.10053,-13.02416 -0.0358,-0.0344 -1.13671,0.10846 -2.4464,0.31741 -3.26004,0.52013 -6.48229,1.41427 -6.48229,1.79876 0,0.38631 2.17968,8.11341 2.92771,10.37892 l 0.53713,1.62677 1.11185,-0.12941 c 0.61152,-0.0712 2.29235,-0.29701 3.73519,-0.50186 z m 12.27912,-1.28508 c 2.23,-0.19924 4.12201,-0.42973 4.20448,-0.51219 0.18578,-0.18579 -0.35723,-13.11974 -0.5593,-13.32181 -0.13981,-0.13981 -8.59448,0.59398 -10.43605,0.90575 -0.79045,0.13382 -0.8688,0.22327 -0.73875,0.84329 0.08,0.38148 0.39956,3.07484 0.7101,5.98526 0.31053,2.91042 0.61547,5.55956 0.67764,5.88698 0.1367,0.71992 0.37338,0.72811 6.14188,0.21272 z m 14.334,-0.89357 2.24895,-0.17905 0.33281,-1.98437 c 1.02052,-6.08482 1.65609,-11.21381 1.41897,-11.45093 -0.24504,-0.24505 -11.84777,0.15977 -12.11054,0.42254 -0.12242,0.12242 0.42751,13.18018 0.56445,13.40238 0.10085,0.16364 4.32583,0.0457 7.54536,-0.21057 z m -41.22052,-6.08524 c -0.11753,-0.79503 -0.19593,-0.86282 -0.81982,-0.70888 -1.08888,0.26869 -1.13841,0.47775 -0.47478,2.00423 0.34333,0.78971 0.72479,1.67397 0.8477,1.96501 0.17309,0.4099 0.26328,0.20118 0.40015,-0.92604 0.0972,-0.80036 0.11822,-1.85081 0.0467,-2.33432 z m 39.54614,24.7354 c -1.91057,-2.70119 -2.44594,-3.35108 -2.76056,-3.35108 -0.13698,0 -0.95134,1.12987 -1.80967,2.51082 -0.85833,1.38095 -1.63488,2.51205 -1.72566,2.51354 -0.25579,0.004 -4.02762,-15.72966 -3.87825,-16.17777 0.12806,-0.38419 15.02352,7.25334 15.02352,7.7032 0,0.11981 -0.32743,0.29469 -0.72761,0.38862 -1.64983,0.38722 -5.09323,1.54922 -5.09323,1.71874 0,0.10033 0.8848,1.42342 1.96623,2.94021 2.01958,2.83263 2.08492,3.0838 0.95896,3.6864 -0.33732,0.18053 -0.74264,-0.22042 -1.95373,-1.93268 z m 4.65094,-0.35847 c 0.25466,-0.0666 0.67138,-0.0666 0.92604,0 0.25466,0.0666 0.0463,0.121 -0.46302,0.121 -0.50932,0 -0.71768,-0.0545 -0.46302,-0.121 z m -1.07749,-2.33222 c -1.08111,-0.90969 -1.13254,-1.8534 -0.11314,-2.07616 0.40019,-0.0874 1.00391,-0.23748 1.34162,-0.3334 0.58683,-0.16669 0.60578,-0.12892 0.42817,0.85353 -0.1022,0.56536 -0.3276,1.30593 -0.50087,1.6457 l -0.31505,0.61777 z M 79.67211,122.15685 c -2.14711,-4.94192 -3.27383,-5.82058 -7.4765,-5.83048 -2.128,-0.005 -2.61812,0.0815 -3.57188,0.63024 -3.76479,2.16618 -9.37001,0.27254 -8.12074,-2.74346 0.56315,-1.35956 1.29304,-1.46015 6.96317,-0.95965 7.48098,0.66034 8.28802,0.81649 9.90125,1.91578 1.80457,1.22968 2.82331,2.81624 3.7861,5.89635 0.92618,2.96298 0.92762,2.98095 0.28618,3.56145 -0.48084,0.43515 -0.54305,0.34822 -1.76758,-2.47023 z"
       id="path2"
       inkscape:label="Carrito"
       sodipodi:nodetypes="cssscsscsscssssscscsssssssssscccssssccssssssssssssssssscscssscscccsssccsscssscsssccsssccssssssssssssssscssccsssssssscscscsssccsssssscscccscsccsscccscssccssccssssccccccccssscsscsssscsscscssscsscccccscs" />
  </g>
</svg>
