<?xml version="1.0" encoding="UTF-8" standalone="no"?>
<!-- Created with Inkscape (http://www.inkscape.org/) -->

<svg
   width="1165.7932"
   height="270.59412"
   viewBox="0 0 308.44944 71.594693"
   version="1.1"
   id="svg1"
   xml:space="preserve"
   inkscape:version="1.4.2 (f4327f4, 2025-05-13)"
   sodipodi:docname="logo.svg"
   xmlns:inkscape="http://www.inkscape.org/namespaces/inkscape"
   xmlns:sodipodi="http://sodipodi.sourceforge.net/DTD/sodipodi-0.dtd"
   xmlns="http://www.w3.org/2000/svg"
   xmlns:svg="http://www.w3.org/2000/svg"><sodipodi:namedview
     id="namedview1"
     pagecolor="#ffffff"
     bordercolor="#000000"
     borderopacity="0.25"
     inkscape:showpageshadow="2"
     inkscape:pageopacity="0.0"
     inkscape:pagecheckerboard="0"
     inkscape:deskcolor="#d1d1d1"
     inkscape:document-units="mm"
     inkscape:zoom="0.68862935"
     inkscape:cx="257.03232"
     inkscape:cy="127.064"
     inkscape:window-width="1920"
     inkscape:window-height="991"
     inkscape:window-x="-9"
     inkscape:window-y="-9"
     inkscape:window-maximized="1"
     inkscape:current-layer="layer1" /><defs
     id="defs1" /><g
     inkscape:label="Capa 1"
     inkscape:groupmode="layer"
     id="layer1"
     transform="translate(-131.25001,-13.36783)"
     style="display:inline"><g
       id="g1"
       transform="translate(4.2263907,-95.285899)"
       inkscape:label="LogoVerdeWeb"><path
         id="path164"
         style="display:inline;fill:#dc901c"
         d="m 232.56334,172.74072 c -0.0989,-0.16009 -0.19789,-2.63064 -0.21988,-5.49011 l -0.04,-5.19903 -1.97854,-0.13229 c -1.89879,-0.12696 -1.97855,-0.15896 -1.97855,-0.79375 v -0.66146 h 5.02708 5.02709 v 0.66146 c 0,0.64201 -0.0603,0.66373 -2.05052,0.73873 l -2.05053,0.0773 v 5.22762 c 0,3.71315 -0.092,5.3196 -0.3175,5.54512 -0.39731,0.39731 -1.18042,0.4119 -1.41866,0.0264 z m 9.74628,-0.26276 c -1.99759,-0.98879 -2.29209,-1.81257 -2.41115,-6.74459 -0.11207,-4.64237 0.064,-5.49894 1.09967,-5.35149 0.56165,0.08 0.58102,0.20529 0.7097,4.59255 0.14379,4.9025 0.36569,5.69045 1.75085,6.21708 1.01083,0.38432 2.82335,0.3022 3.4799,-0.15767 1.10379,-0.77312 1.24639,-1.39882 1.38383,-6.07184 l 0.13229,-4.49792 h 0.79375 0.79375 l 0.0717,4.49792 c 0.0674,4.22773 0.0356,4.56943 -0.52917,5.68854 -1.13339,2.24596 -4.64669,3.12846 -7.27509,1.82742 z m 19.32173,0.2231 c -0.62736,-0.83125 -4.86601,-11.14049 -4.79257,-11.65652 0.0597,-0.41965 0.26472,-0.58046 0.73999,-0.58046 0.60223,0 0.8336,0.41686 2.75751,4.96832 1.15506,2.73258 2.17971,4.87571 2.277,4.7625 0.0973,-0.1132 1.10856,-2.38471 2.24728,-5.04781 1.9684,-4.60344 2.10397,-4.83807 2.75189,-4.7625 0.37482,0.0437 0.71758,0.27011 0.7617,0.50309 0.0666,0.35189 -4.38658,10.7552 -5.05682,11.81338 -0.11521,0.1819 -0.48552,0.33073 -0.82292,0.33073 -0.3374,0 -0.72577,-0.14883 -0.86306,-0.33073 z m 8.77025,-0.006 c -0.0711,-0.18519 -0.0971,-3.01293 -0.0578,-6.28385 l 0.0714,-5.94714 3.73208,-0.0732 c 3.08621,-0.0605 3.79009,-0.003 4.06729,0.33073 0.2677,0.32256 0.26888,0.48384 0.006,0.80078 -0.25584,0.30827 -0.97194,0.39688 -3.2074,0.39688 h -2.87802 v 1.98437 1.98438 h 2.91042 2.91041 v 0.66146 0.66145 h -2.91041 -2.91042 v 2.11667 2.11667 h 3.0144 c 2.53978,0 3.04041,0.0678 3.17957,0.43041 0.37337,0.973 -0.2818,1.15709 -4.118,1.15709 -2.73489,0 -3.71326,-0.0865 -3.80929,-0.33672 z m 10.32555,0.0177 c -0.0748,-0.19494 -0.10389,-3.03065 -0.0646,-6.30157 l 0.0714,-5.94714 3.06357,-0.0742 c 4.89376,-0.11845 6.19684,0.64867 6.19684,3.64805 0,1.35932 -0.0971,1.65205 -0.78641,2.37157 -0.43253,0.45147 -1.04156,0.88488 -1.35339,0.96315 -0.53076,0.13321 -0.46707,0.28963 0.99737,2.44955 1.63628,2.41336 1.78629,3.20954 0.60473,3.20954 -0.48499,0 -0.97625,-0.55383 -2.34695,-2.64584 l -1.73357,-2.64583 h -1.45162 -1.45162 l -0.0757,2.57969 -0.0757,2.57969 -0.72911,0.0839 c -0.43085,0.0496 -0.78475,-0.0611 -0.86512,-0.27057 z m 5.50886,-6.55787 c 1.00765,-0.003 2.03849,-1.07467 2.03849,-2.11896 0,-0.51551 -0.24006,-1.05787 -0.64943,-1.46724 -0.58819,-0.58819 -0.86264,-0.64943 -2.91042,-0.64943 h -2.26098 v 2.07257 c 0,1.13991 0.0893,2.16395 0.19844,2.27563 0.10914,0.11169 0.79375,0.13256 1.52135,0.0464 0.72761,-0.0862 1.65575,-0.1577 2.06255,-0.15897 z m 6.82824,6.51282 c -0.2115,-0.25484 -0.28074,-2.13976 -0.23083,-6.28385 l 0.0713,-5.91981 3.02146,-0.0752 c 2.78931,-0.0694 3.12472,-0.0235 4.36562,0.59774 0.73929,0.37013 1.66551,1.09997 2.05826,1.62185 1.28192,1.70341 1.53955,4.84772 0.58449,7.1335 -0.55685,1.33273 -2.2423,2.66388 -3.79432,2.99673 -1.98829,0.42641 -5.69917,0.38309 -6.07597,-0.0709 z m 6.24108,-1.73854 c 1.49608,-0.67923 2.19848,-2.05436 2.19793,-4.30302 -4.7e-4,-1.89355 -0.53393,-3.19149 -1.64714,-4.00759 -0.54555,-0.39994 -1.2715,-0.55781 -2.97657,-0.6473 l -2.25505,-0.11836 v 4.79568 4.79568 l 1.78594,-0.006 c 1.18,-0.004 2.16219,-0.17663 2.89489,-0.50928 z m 8.95304,1.51308 c -0.57778,-0.33505 -1.32192,-1.01192 -1.65365,-1.50417 -0.57194,-0.84871 -0.60313,-1.13969 -0.60313,-5.62667 0,-4.13659 0.0544,-4.75257 0.43283,-4.89777 0.23806,-0.0914 0.62502,-0.0452 0.8599,0.10257 0.35638,0.2242 0.44895,1.00842 0.55935,4.73846 0.16943,5.72459 0.40864,6.18959 3.18406,6.18959 1.20159,0 1.47549,-0.10872 2.26636,-0.89959 l 0.89958,-0.89958 v -4.35968 c 0,-4.5955 0.1331,-5.12032 1.24406,-4.90525 0.43764,0.0847 0.47573,0.48751 0.47573,5.0302 0,4.57503 -0.0401,4.99179 -0.54551,5.6681 -1.08525,1.45222 -1.85339,1.813 -4.03641,1.89584 -1.72771,0.0656 -2.19027,-0.0143 -3.08317,-0.53205 z m 11.00562,0.23268 c -0.2191,-0.264 -0.28752,-2.08156 -0.23683,-6.29107 l 0.0713,-5.91981 h 0.79375 0.79375 l 0.0715,5.4901 0.0715,5.49011 h 3.05491 3.05492 l -0.0837,0.7276 -0.0837,0.72761 -3.59964,0.0734 c -2.83461,0.0578 -3.66512,-0.006 -3.90775,-0.2979 z m 9.65025,-0.0516 c -0.3605,-0.3605 -0.42307,-1.2345 -0.42307,-5.90985 0,-3.99127 0.0908,-5.61089 0.33294,-5.94211 0.29228,-0.39971 0.78509,-0.44629 4.0349,-0.3813 l 3.70195,0.074 v 0.66146 0.66146 l -3.12027,0.0746 -3.12028,0.0746 0.0776,1.90973 0.0776,1.90974 2.91042,0.13229 c 2.75671,0.1253 2.91482,0.16326 2.99381,0.71878 0.0814,0.57228 0.0109,0.5883 -2.91042,0.66145 l -2.99381,0.075 -0.0771,2.04203 -0.0771,2.04202 3.11983,0.0746 3.11983,0.0746 v 0.66146 0.66146 l -3.61183,0.0734 c -3.02417,0.0615 -3.68066,0.005 -4.03489,-0.34963 z m 10.21318,0.091 c -0.22735,-0.22735 -0.3175,-1.94028 -0.3175,-6.0325 0,-4.09222 0.0902,-5.80516 0.3175,-6.0325 0.46129,-0.4613 6.0581,-0.42445 7.1872,0.0473 1.43957,0.60149 2.0203,1.57924 2.0203,3.40149 0,1.44213 -0.0776,1.65589 -0.89959,2.47786 -0.49477,0.49478 -1.09086,0.89959 -1.32464,0.89959 -0.30667,0 -0.0126,0.61981 1.05583,2.22528 1.57505,2.36676 1.74036,3.19868 0.63561,3.19868 -0.53032,0 -0.92669,-0.41029 -2.04484,-2.11667 -2.04918,-3.1272 -1.99588,-3.08212 -3.53488,-2.99008 l -1.33203,0.0797 -0.0767,2.27975 c -0.0422,1.25385 -0.16014,2.41471 -0.2621,2.57968 -0.24295,0.39312 -1.02309,0.3835 -1.42414,-0.0175 z m 6.82625,-7.09083 c 0.63011,-0.63011 0.71374,-2.29209 0.15389,-3.05829 -0.31575,-0.43214 -0.76878,-0.52784 -2.85667,-0.60344 l -2.48141,-0.0899 0.0124,2.1401 0.0124,2.1401 2.31511,2.8e-4 c 1.96255,2.3e-4 2.39568,-0.0803 2.84427,-0.52889 z m 5.15993,6.8297 c -0.0826,-0.3366 -0.11652,-3.17184 -0.0754,-6.30054 l 0.0748,-5.68854 h 0.79375 0.79375 v 6.21771 6.21771 l -0.71837,0.0828 c -0.56607,0.0653 -0.75022,-0.0469 -0.86857,-0.52917 z m 3.85599,0.20596 c -0.27344,-0.32947 0.12507,-1.41619 2.30904,-6.29662 l 2.63952,-5.89842 h 0.85119 0.85119 l 2.48886,5.68854 c 1.36887,3.1287 2.4575,5.92667 2.41917,6.21771 -0.0421,0.31933 -0.30559,0.56267 -0.6646,0.61366 -0.50246,0.0714 -0.70369,-0.1663 -1.29476,-1.52919 l -0.69983,-1.61369 -3.19053,0.074 -3.19052,0.074 -0.55369,1.45521 c -0.58623,1.54072 -1.31874,1.99357 -1.96504,1.21483 z m 8.18199,-4.48871 c 0,-0.0544 -0.47625,-1.17183 -1.05833,-2.4832 -0.58208,-1.31138 -1.05833,-2.51704 -1.05833,-2.67925 0,-0.99681 -1.05458,1.0234 -2.57385,4.9306 -0.0971,0.24979 0.46111,0.33073 2.28096,0.33073 1.32525,0 2.40955,-0.0445 2.40955,-0.0989 z m 12.7539,4.29829 c -2.18897,-1.08351 -3.09796,-3.06527 -2.90835,-6.34069 0.21702,-3.7489 2.12866,-5.78319 5.44264,-5.79187 2.76831,-0.007 4.21435,0.82932 5.25194,3.03836 1.2016,2.55823 0.62539,6.83069 -1.13158,8.39043 -1.51825,1.34781 -4.67836,1.68201 -6.65465,0.70377 z m 5.2001,-1.91436 c 2.02234,-1.93752 1.74425,-6.8754 -0.46055,-8.17781 -0.46601,-0.27528 -1.32112,-0.45724 -2.14875,-0.45724 -1.20331,0 -1.4839,0.1092 -2.25057,0.87588 -1.08483,1.08482 -1.56558,2.74407 -1.34352,4.63701 0.19853,1.69237 0.68508,2.70681 1.67171,3.48543 1.07583,0.84901 3.46635,0.65738 4.53168,-0.36327 z m 5.93802,2.15949 c -0.34409,-0.43606 -0.38201,-11.27684 -0.0417,-11.91902 0.56575,-1.06757 1.21435,-0.48522 4.63132,4.15828 1.87036,2.54172 3.48696,4.62532 3.59247,4.63021 0.1055,0.005 0.13477,-0.31852 0.065,-0.7187 -0.0697,-0.40018 -0.037,-2.45401 0.0728,-4.56406 l 0.19953,-3.83646 h 0.66146 0.66146 v 6.21771 6.21771 h -0.66146 c -0.54894,0 -1.24655,-0.78569 -4.10104,-4.61883 l -3.43959,-4.61883 -0.13229,4.61883 c -0.12695,4.43246 -0.15457,4.62201 -0.68461,4.69774 -0.30377,0.0434 -0.67429,-0.0757 -0.82337,-0.26458 z m 13.18289,-0.0389 c -0.2191,-0.264 -0.28753,-2.08156 -0.23683,-6.29107 l 0.0713,-5.91981 h 0.79375 0.79375 l 0.0715,5.48149 0.0715,5.48149 2.97122,0.0748 2.97122,0.0748 v 0.66146 0.66146 l -3.59963,0.0734 c -2.83461,0.0578 -3.66512,-0.006 -3.90775,-0.2979 z m 9.58287,0.0412 c -0.30657,-0.47461 -0.353,-11.34581 -0.0509,-11.92138 0.28954,-0.55167 1.09872,-0.60667 1.51665,-0.10309 0.33027,0.39795 0.37014,10.2979 0.0464,11.51655 -0.20244,0.762 -1.14375,1.07819 -1.51211,0.50792 z m 4.79728,-0.003 c -0.075,-0.1954 -0.10422,-3.03149 -0.065,-6.30241 0.0707,-5.8945 0.0765,-5.94787 0.65146,-6.02969 0.47567,-0.0677 1.12284,0.64672 3.59519,3.96875 1.6583,2.22821 3.18207,4.31919 3.38615,4.64661 0.20409,0.32742 0.45868,0.59531 0.56576,0.59531 0.10708,0 0.22727,-2.05382 0.26708,-4.56406 l 0.0724,-4.56406 h 0.66146 0.66145 l 0.1323,5.95312 c 0.0728,3.27422 0.0284,6.10196 -0.0985,6.28386 -0.60977,0.87365 -1.28159,0.25356 -4.72991,-4.36563 l -3.50592,-4.69635 -0.13229,4.63021 c -0.13021,4.5573 -0.14168,4.63154 -0.72879,4.71491 -0.32807,0.0466 -0.65784,-0.0752 -0.73282,-0.27057 z m 13.11258,-0.19361 c -0.40531,-0.75734 -0.36599,-11.46113 0.0436,-11.87073 0.21712,-0.21712 1.50478,-0.3175 4.07274,-0.3175 3.22395,0 3.7786,0.0609 3.92039,0.43041 0.35835,0.93382 -0.30924,1.15709 -3.45982,1.15709 h -3.02191 l 0.0777,1.91823 0.0777,1.91823 2.91041,0.13229 c 2.77041,0.12593 2.91449,0.16093 2.99497,0.7276 0.0826,0.58173 0.0238,0.59607 -2.57969,0.62839 -1.46533,0.0182 -2.81306,0.0479 -2.99496,0.0661 -0.22583,0.0226 -0.35524,0.68345 -0.40801,2.0836 l -0.0773,2.05052 h 3.00092 c 3.19222,0 3.8264,0.20804 3.34964,1.09886 -0.23506,0.43923 -0.6342,0.48864 -3.94706,0.48864 -3.373,0 -3.70877,-0.0434 -3.95944,-0.51177 z"
         inkscape:label="Linea2" /><path
         id="path61"
         style="display:inline;fill:#026939"
         d="m 238.56958,144.78708 c -0.49147,-0.41296 -3.51465,-7.149 -8.65746,-19.28992 -1.59889,-3.7746 -1.71481,-4.17405 -1.41872,-4.88887 0.3698,-0.89277 0.97351,-1.28736 1.96965,-1.28736 1.29683,0 1.64392,0.4645 3.30798,4.42697 0.90251,2.14907 2.66137,6.34819 3.90856,9.33137 1.24719,2.98317 2.34876,5.51972 2.44793,5.63677 0.0992,0.11704 1.40604,-2.74046 2.90414,-6.35 1.49811,-3.60955 3.23721,-7.79845 3.86466,-9.30868 0.62746,-1.51023 1.34254,-2.96874 1.58906,-3.24115 1.01968,-1.12673 3.54121,-0.16947 3.54121,1.34437 0,0.4086 -0.96033,2.93004 -2.13405,5.60319 -5.44261,12.3955 -6.58609,15.00897 -7.13823,16.31471 -0.32565,0.77014 -0.83989,1.57381 -1.14274,1.78593 -0.75274,0.52725 -2.37145,0.48609 -3.04199,-0.0773 z m 38.96926,-0.19442 -0.65744,-0.65744 0.0742,-11.66924 0.0742,-11.66923 0.64547,-0.52249 c 0.60893,-0.49292 0.99827,-0.5178 6.87916,-0.43947 5.91166,0.0787 6.30598,0.11568 7.63274,0.7152 2.76053,1.24741 4.19182,3.74274 4.12215,7.18664 -0.06,2.96507 -1.89643,5.63232 -4.39671,6.38575 -1.14159,0.344 -1.16169,0.38899 -0.50231,1.12421 0.26943,0.30042 1.54139,2.09403 2.82657,3.9858 2.58539,3.80566 2.88415,4.7915 1.73424,5.72263 -0.6575,0.53242 -1.88919,0.64807 -2.63737,0.24765 -0.25428,-0.13608 -1.50382,-1.89225 -2.77675,-3.9026 -1.27294,-2.01035 -2.7251,-4.22073 -3.22702,-4.91195 l -0.9126,-1.25677 h -2.51097 -2.51097 v 4.24647 c 0,5.36531 -0.28116,6.07228 -2.41492,6.07228 -0.48236,0 -1.03716,-0.25302 -1.44158,-0.65744 z m 12.43166,-13.89464 c 1.32173,-0.68129 1.87588,-1.69737 1.87588,-3.43959 0,-1.7948 -0.55572,-2.76723 -2.00319,-3.50531 -0.7379,-0.37627 -1.61093,-0.46269 -4.67754,-0.46303 l -3.77031,-4.1e-4 v 3.98782 3.98781 l 3.9026,-0.0852 c 2.81119,-0.0614 4.11793,-0.1962 4.67256,-0.48208 z m 74.83933,13.95677 c -0.32728,-0.35381 -1.03998,-2.25901 -1.75683,-4.69636 -0.66338,-2.25557 -2.12388,-7.0776 -3.24555,-10.71562 -2.36927,-7.68447 -2.52307,-8.55323 -1.6571,-9.36001 0.82908,-0.7724 2.34935,-0.75587 3.07515,0.0335 0.36927,0.40158 1.3464,3.41732 3.00268,9.26719 1.3504,4.76953 2.53521,8.57953 2.63292,8.46667 0.0977,-0.11287 0.36136,-0.86006 0.58589,-1.66043 1.68932,-6.02173 4.83939,-15.56807 5.30386,-16.07343 0.63465,-0.69053 2.15015,-0.79751 2.92989,-0.20683 0.47787,0.36201 1.44233,3.3043 4.53878,13.84652 0.69676,2.37222 1.35356,4.21769 1.45954,4.10104 0.10599,-0.11665 0.98793,-3.01006 1.95988,-6.4298 3.474,-12.2231 3.33669,-11.90625 5.15983,-11.90625 1.08276,0 1.86948,0.82177 1.86948,1.95278 0,0.49194 -1.05773,4.33171 -2.35051,8.53281 -1.29278,4.2011 -2.78845,9.12665 -3.32372,10.94566 -1.11212,3.77935 -1.64044,4.49792 -3.30705,4.49792 -1.79278,0 -1.96431,-0.3142 -4.26124,-7.80521 -1.16012,-3.78354 -2.30426,-7.59354 -2.54253,-8.46667 -0.23827,-0.87312 -0.51368,-1.67971 -0.61201,-1.79241 -0.0983,-0.1127 -0.74216,1.67324 -1.4307,3.96875 -2.92746,9.75981 -4.14395,13.2797 -4.73183,13.69146 -0.89109,0.62414 -2.6383,0.52286 -3.29883,-0.19123 z m -108.58674,-0.17506 -0.62463,-0.50579 V 132.28552 120.5971 l 0.62463,-0.50579 c 0.5814,-0.47079 1.13174,-0.50579 7.95307,-0.50579 7.99184,0 8.08977,0.0176 8.38164,1.50381 0.13379,0.68129 0.0356,0.9722 -0.51358,1.52136 l -0.679,0.67899 h -5.70056 -5.70057 v 3.43959 3.43958 h 5.43598 c 5.41876,0 5.43804,0.002 6.08542,0.64943 0.35719,0.35719 0.64943,0.84127 0.64943,1.07573 0,0.5195 -0.50211,1.51117 -0.8995,1.77652 -0.16012,0.10691 -2.74183,0.19621 -5.73713,0.19843 -2.99531,0.002 -5.49562,0.0533 -5.55625,0.11342 -0.0606,0.0601 -0.074,1.72702 -0.0298,3.70416 l 0.0805,3.59481 h 5.68625 c 5.68448,0 5.68646,2e-4 6.33568,0.64943 0.35719,0.35719 0.64944,0.84127 0.64944,1.07573 0,0.5195 -0.50211,1.51117 -0.89951,1.77652 -0.16011,0.10691 -3.58191,0.19621 -7.60399,0.19843 -6.80942,0.004 -7.35588,-0.0308 -7.9375,-0.50173 z m 45.59128,-0.10658 c -0.57227,-0.60915 -0.57528,-0.67212 -0.57528,-12.00286 0,-11.12282 0.0129,-11.40688 0.54837,-12.08763 l 0.54837,-0.69714 h 4.97176 c 5.66876,0 7.16383,0.20997 9.44711,1.32678 4.01199,1.96237 6.18562,5.95865 6.17631,11.35532 -0.0114,6.58132 -3.00997,10.85518 -8.64619,12.32323 -1.09391,0.28492 -2.95838,0.39467 -6.7052,0.39467 -5.08291,0 -5.20183,-0.0126 -5.76525,-0.61237 z m 11.65501,-3.60274 c 1.61421,-0.49792 3.16436,-1.87287 4.03843,-3.58196 0.71719,-1.40236 0.80505,-1.84701 0.88656,-4.48656 0.11127,-3.60327 -0.4444,-5.41525 -2.1986,-7.16945 -1.63221,-1.63221 -3.20307,-2.0849 -7.28377,-2.09902 l -3.30729,-0.0114 -0.0699,8.59681 c -0.0385,4.72825 -0.007,8.76063 0.0698,8.96086 0.1123,0.29265 0.80064,0.33764 3.50948,0.22941 1.85338,-0.0741 3.81325,-0.27144 4.35528,-0.43864 z m 14.95198,3.88438 c -0.90656,-0.68842 -0.98853,-1.71221 -0.98853,-12.34702 0,-10.8473 0.0938,-11.94148 1.06877,-12.46325 0.28263,-0.15126 3.5667,-0.259 7.89467,-0.259 7.3581,0 7.41365,0.004 7.8226,0.58803 0.56765,0.81043 0.51553,1.84677 -0.12759,2.53708 -0.52334,0.56173 -0.71332,0.57905 -6.35,0.57905 h -5.81053 v 3.43959 3.43958 h 5.55625 c 5.20347,0 5.58985,0.0336 6.08542,0.52917 0.29398,0.29398 0.52916,0.88194 0.52916,1.32291 0,0.44098 -0.23518,1.02894 -0.52916,1.32292 -0.49557,0.49557 -0.88195,0.52917 -6.08542,0.52917 h -5.55625 v 3.70416 3.70417 h 5.82083 c 5.46806,0 5.85291,0.0321 6.35,0.52917 0.63302,0.63301 0.68487,1.77663 0.11729,2.58696 -0.40909,0.58406 -0.46236,0.58804 -7.88693,0.58804 -5.57137,0 -7.58597,-0.0842 -7.91058,-0.33073 z m 66.74481,-0.19844 C 394.6531,143.94328 394.637,143.5744 394.637,132.33164 v -11.59555 l 0.61236,-0.57529 c 0.59877,-0.56251 0.77763,-0.57528 8.05479,-0.57528 7.39086,0 7.44528,0.004 7.8543,0.58803 0.56758,0.81034 0.51573,1.95395 -0.11728,2.58697 -0.4971,0.49709 -0.88195,0.52916 -6.35,0.52916 h -5.82084 v 3.43959 3.43958 h 5.55625 c 5.20347,0 5.58985,0.0336 6.08542,0.52917 0.67563,0.67562 0.69995,2.14468 0.0453,2.73711 -0.41816,0.37843 -1.2444,0.43789 -6.08542,0.43789 h -5.60156 v 3.70416 3.70417 h 5.82084 c 5.46805,0 5.8529,0.0321 6.35,0.52917 0.63301,0.63301 0.68486,1.77663 0.11728,2.58696 -0.4092,0.58422 -0.46067,0.58804 -7.9375,0.58804 -7.17284,0 -7.55042,-0.0248 -8.05478,-0.52917 z m 21.44247,-0.17812 c -0.54874,-0.69761 -0.55534,-0.86461 -0.48223,-12.19439 l 0.0741,-11.4871 0.64484,-0.52198 c 0.60946,-0.49334 1.00148,-0.51746 7.14375,-0.43947 6.0564,0.0769 6.57121,0.12124 7.56071,0.65123 2.34806,1.25765 3.55299,3.19348 3.5626,5.72364 0.003,0.84142 -0.1786,1.97251 -0.40399,2.51354 -0.45515,1.09257 -2.1528,2.96807 -2.68661,2.96807 -0.61729,0 -0.36033,0.45786 0.44393,0.79099 0.4329,0.17932 1.25428,0.83286 1.82528,1.45232 2.48444,2.6953 1.93795,7.48625 -1.1054,9.69084 -1.89306,1.37133 -3.08455,1.5596 -9.87018,1.5596 h -6.15048 z m 13.23615,-3.56807 c 2.01701,-1.13363 2.34921,-3.99348 0.66008,-5.6826 -1.04462,-1.04462 -2.03295,-1.2105 -6.56949,-1.10259 l -3.37765,0.0803 -0.13383,2.64583 c -0.0736,1.45521 -0.0612,3.09232 0.0275,3.63802 l 0.1613,0.99219 h 4.1079 c 3.71843,0 4.20427,-0.0542 5.12421,-0.57119 z m -0.95633,-10.91609 c 2.44947,-1.02345 2.63263,-4.9718 0.28238,-6.08707 -0.6784,-0.32192 -1.77754,-0.41718 -4.8082,-0.4167 l -3.92877,6.1e-4 0.0305,2.44678 c 0.0168,1.34573 0.0465,2.89327 0.0661,3.43897 l 0.0356,0.99219 h 3.71266 c 2.6043,0 3.98044,-0.11188 4.60963,-0.37478 z"
         inkscape:label="Linea1" /><path
         style="display:inline;fill:#000000"
         d="m 158.0661,179.68206 c -1.44344,-0.9154 -2.08326,-2.14047 -2.08326,-3.98882 0,-1.38828 0.64235,-3.04517 1.43587,-3.70374 0.67752,-0.56229 0.49796,-0.67511 -1.15014,-0.72265 -1.85776,-0.0536 -2.51923,-0.36133 -3.20932,-1.49309 -1.05185,-1.72509 -0.32476,-3.24252 2.24996,-4.69559 0.74838,-0.42237 1.63548,-1.1396 1.97132,-1.59385 0.62635,-0.84718 2.74535,-1.97845 3.19052,-1.70332 0.13683,0.0846 1.80607,-0.32439 3.70943,-0.9088 7.27269,-2.23301 10.57841,-2.77826 18.65757,-3.07743 3.35019,-0.12405 5.22036,-0.0433 8.96466,0.38703 4.98768,0.57325 5.71971,0.83026 5.71971,2.00813 0,1.49484 -2.02391,2.3354 -6.74687,2.80206 -5.96995,0.58987 -26.66753,4.47226 -27.31984,5.12457 -0.32669,0.32669 0.14566,0.35599 2.18442,0.1355 6.42219,-0.69454 31.84903,-0.46021 34.61371,0.319 0.70191,0.19783 1.26948,0.47875 1.26125,0.62427 -0.008,0.14552 -0.76111,0.32411 -1.67308,0.39687 l -1.65813,0.1323 0.80983,0.44392 c 2.86568,1.57088 3.73098,4.87975 1.93642,7.40472 -0.66147,0.9307 -2.52162,1.80865 -3.83206,1.80865 -1.39031,0 -3.26449,-0.9749 -3.99884,-2.08009 -1.60338,-2.41309 -0.79555,-5.61222 1.71121,-6.77661 0.61847,-0.28727 1.12448,-0.61469 1.12448,-0.7276 0,-0.62758 -32.75604,0.49677 -33.45656,1.1484 -0.1563,0.1454 -0.13477,0.23381 0.0569,0.23381 0.4114,0 2.1231,1.51824 2.49486,2.21288 0.83985,1.56927 0.69291,3.77848 -0.3486,5.24115 -1.35266,1.89962 -4.48933,2.39668 -6.61546,1.04833 z m 3.68063,-1.3784 c 2.13708,-0.74499 2.22641,-3.90957 0.14048,-4.97632 -1.05471,-0.53939 -1.9374,-0.34669 -2.92197,0.63788 -0.83892,0.83892 -0.91888,1.04191 -0.78971,2.00491 0.15139,1.12873 0.76064,2.00633 1.64377,2.36778 0.72823,0.29806 0.98736,0.29346 1.92743,-0.0342 z m -1.52001,-1.95187 c -0.50853,-0.61274 -0.22587,-1.33563 0.52224,-1.33563 0.49205,0 0.68034,0.15916 0.74713,0.63154 0.13241,0.93641 -0.69546,1.39561 -1.26937,0.70409 z m 38.52151,0.44443 c 1.41982,-1.1501 1.44979,-2.9825 0.0678,-4.14536 -1.18523,-0.9973 -2.42684,-0.92001 -3.56903,0.22218 -0.57038,0.57037 -0.89959,1.15614 -0.89959,1.60064 0,0.86976 0.64048,2.14671 1.25677,2.50566 0.73424,0.42766 2.51829,0.32375 3.14404,-0.18312 z m -2.39248,-1.81304 c -0.22442,-0.58483 0.45507,-1.28426 1.03242,-1.06271 0.26858,0.10306 0.40343,0.39629 0.35125,0.76378 -0.10551,0.74297 -1.12847,0.96397 -1.38367,0.29893 z m 1.96042,-6.44931 c -0.98784,-0.31636 -7.63328,-0.31636 -7.14375,0 0.21828,0.14107 2.06375,0.24644 4.10104,0.23416 2.26075,-0.0136 3.44642,-0.10487 3.04271,-0.23416 z M 162.9943,156.48006 c -0.66844,-0.35531 -1.03248,-0.37515 -2.30597,-0.12566 -1.24765,0.24442 -1.64602,0.22707 -2.27696,-0.0992 -0.89477,-0.46271 -1.19322,-1.10927 -3.49192,-7.56508 -1.13218,-3.17966 -1.89684,-4.91372 -2.44082,-5.5352 -0.72383,-0.82694 -0.77823,-1.0209 -0.63079,-2.24896 0.14131,-1.17705 -0.0399,-1.95188 -1.45919,-6.23875 -0.89129,-2.69214 -1.71842,-5.01978 -1.83805,-5.17254 -0.11964,-0.15276 -0.81635,-0.43122 -1.54826,-0.6188 -3.58562,-0.91897 -3.49581,-4.62924 0.15672,-6.47399 2.97633,-1.50323 9.45468,-3.37491 14.77691,-4.26924 2.18281,-0.36679 4.51097,-0.83197 5.17369,-1.03374 2.05754,-0.62643 6.82974,-1.02357 10.19801,-0.84868 5.92049,0.30742 7.12284,0.30025 11.88038,-0.0709 5.37253,-0.41914 16.01684,-0.53718 18.72468,-0.20765 1.28046,0.15583 2.00521,0.39795 2.54118,0.84893 l 0.74982,0.63094 1.0307,-0.53372 c 1.68546,-0.87277 4.60258,-0.18398 4.60258,1.08676 0,1.30451 -1.76977,1.97438 -3.16933,1.19962 -0.56322,-0.31178 -0.76697,-0.30552 -1.44355,0.0444 -0.55039,0.28462 -0.81786,0.31711 -0.88762,0.10782 -0.11971,-0.35912 -0.8495,-0.40464 -0.8495,-0.053 0,0.13561 -0.38696,0.52256 -0.8599,0.85989 -0.77335,0.55161 -1.23269,0.62665 -4.56406,0.74562 l -3.70417,0.1323 -0.19399,3.67908 c -0.1067,2.02349 -0.44265,5.04728 -0.74657,6.71954 -0.59877,3.29469 -0.55864,3.46838 0.80827,3.49845 0.3638,0.008 1.55443,0.17164 2.64583,0.36365 1.70794,0.30046 2.09905,0.2946 2.80758,-0.042 0.7615,-0.36179 0.92745,-0.711 2.21416,-4.65908 1.1265,-3.45651 2.62166,-6.78151 3.04945,-6.78151 0.10704,0 -0.73082,3.77896 -1.5652,7.05941 -0.72714,2.85886 -0.8523,4.18314 -0.42057,4.44996 0.47905,0.29607 0.27632,1.20502 -0.41079,1.84181 -0.51954,0.4815 -1.0415,1.83245 -2.26229,5.85534 -2.53175,8.34289 -3.62382,10.6914 -4.97159,10.6914 -0.8214,0 -0.90541,-0.46232 -0.1714,-0.94326 0.40938,-0.26824 0.77637,-0.86096 0.94915,-1.53298 0.15493,-0.6026 0.92195,-3.47689 1.70447,-6.38731 1.96635,-7.31338 1.94452,-7.1506 1.02094,-7.61313 -0.5903,-0.29562 -1.25958,-0.33074 -3.09326,-0.1623 -1.28699,0.11822 -2.56082,0.28503 -2.83074,0.3707 -0.57768,0.18335 -0.58496,0.20539 -1.30895,3.96515 -0.76086,3.95115 -0.57924,3.69082 -2.05364,2.94368 l -1.26832,-0.6427 0.30237,-3.00257 c 0.1663,-1.65142 0.21221,-3.10225 0.10203,-3.22407 -0.20362,-0.22512 -8.90457,0.26895 -9.32629,0.52958 -0.12664,0.0783 -0.16635,0.30887 -0.0882,0.51243 0.19019,0.49563 0.21143,0.50154 -1.99516,-0.55593 -2.24277,-1.07482 -2.56614,-1.11151 -3.47761,-0.39455 -0.37162,0.29231 -1.01275,0.58473 -1.42474,0.64982 -0.41199,0.0651 -1.73351,0.25753 -2.93672,0.42765 -1.20321,0.17012 -2.24682,0.40505 -2.31913,0.52206 -0.0723,0.117 0.22713,2.69172 0.66544,5.72158 0.4383,3.02987 0.7973,5.59815 0.79778,5.70729 4.7e-4,0.10914 1.66214,0.19844 3.69259,0.19844 h 3.69173 l 0.27611,0.99219 c 0.34814,1.25099 -0.0897,1.65007 -1.82316,1.66181 -0.66341,0.004 -2.09462,0.12346 -3.18047,0.26437 -1.6651,0.21607 -2.06356,0.36818 -2.5445,0.97135 -0.55572,0.69693 -0.58777,0.70368 -1.25758,0.2648 -0.37803,-0.24769 -0.94071,-0.45035 -1.25039,-0.45035 -1.11974,0 -5.96248,1.09772 -6.99618,1.58585 -1.62115,0.76554 -2.30135,0.84764 -3.175,0.38325 z m -2.66747,-3.45262 c 0.23018,-0.0883 0.41851,-0.29828 0.41851,-0.46655 0,-0.42095 -1.86291,-3.15439 -2.03352,-2.98378 -0.13453,0.13453 0.93162,3.61093 1.10741,3.61093 0.049,0 0.27741,-0.0723 0.5076,-0.1606 z m 10.20809,-1.72535 c 1.23693,-0.16776 2.32908,-0.3776 2.427,-0.46631 0.28302,-0.25637 -1.7405,-10.47858 -2.17061,-10.96528 -0.1543,-0.1746 -7.07049,1.017 -7.33618,1.26396 -0.0632,0.0588 2.43341,9.61628 2.72555,10.43379 0.0942,0.26354 0.40397,0.31945 1.11779,0.20172 0.54312,-0.0896 1.99953,-0.30012 3.23645,-0.46788 z m -3.32978,-14.40948 c 1.44284,-0.20484 2.66564,-0.41473 2.71734,-0.46643 0.0925,-0.0925 -1.9735,-12.90229 -2.10053,-13.02416 -0.0358,-0.0344 -1.13671,0.10846 -2.4464,0.31741 -3.26004,0.52013 -6.48229,1.41427 -6.48229,1.79876 0,0.38631 2.17968,8.11341 2.92771,10.37892 l 0.53713,1.62677 1.11185,-0.12941 c 0.61152,-0.0712 2.29235,-0.29701 3.73519,-0.50186 z m 12.27912,-1.28508 c 2.23,-0.19924 4.12201,-0.42973 4.20448,-0.51219 0.18578,-0.18579 -0.35723,-13.11974 -0.5593,-13.32181 -0.13981,-0.13981 -8.59448,0.59398 -10.43605,0.90575 -0.79045,0.13382 -0.8688,0.22327 -0.73875,0.84329 0.08,0.38148 0.39956,3.07484 0.7101,5.98526 0.31053,2.91042 0.61547,5.55956 0.67764,5.88698 0.1367,0.71992 0.37338,0.72811 6.14188,0.21272 z m 14.334,-0.89357 2.24895,-0.17905 0.33281,-1.98437 c 1.02052,-6.08482 1.65609,-11.21381 1.41897,-11.45093 -0.24504,-0.24505 -11.84777,0.15977 -12.11054,0.42254 -0.12242,0.12242 0.42751,13.18018 0.56445,13.40238 0.10085,0.16364 4.32583,0.0457 7.54536,-0.21057 z m -41.22052,-6.08524 c -0.11753,-0.79503 -0.19593,-0.86282 -0.81982,-0.70888 -1.08888,0.26869 -1.13841,0.47775 -0.47478,2.00423 0.34333,0.78971 0.72479,1.67397 0.8477,1.96501 0.17309,0.4099 0.26328,0.20118 0.40015,-0.92604 0.0972,-0.80036 0.11822,-1.85081 0.0467,-2.33432 z m 39.54614,24.7354 c -1.91057,-2.70119 -2.44594,-3.35108 -2.76056,-3.35108 -0.13698,0 -0.95134,1.12987 -1.80967,2.51082 -0.85833,1.38095 -1.63488,2.51205 -1.72566,2.51354 -0.25579,0.004 -4.02762,-15.72966 -3.87825,-16.17777 0.12806,-0.38419 15.02352,7.25334 15.02352,7.7032 0,0.11981 -0.32743,0.29469 -0.72761,0.38862 -1.64983,0.38722 -5.09323,1.54922 -5.09323,1.71874 0,0.10033 0.8848,1.42342 1.96623,2.94021 2.01958,2.83263 2.08492,3.0838 0.95896,3.6864 -0.33732,0.18053 -0.74264,-0.22042 -1.95373,-1.93268 z m 4.65094,-0.35847 c 0.25466,-0.0666 0.67138,-0.0666 0.92604,0 0.25466,0.0666 0.0463,0.121 -0.46302,0.121 -0.50932,0 -0.71768,-0.0545 -0.46302,-0.121 z m -1.07749,-2.33222 c -1.08111,-0.90969 -1.13254,-1.8534 -0.11314,-2.07616 0.40019,-0.0874 1.00391,-0.23748 1.34162,-0.3334 0.58683,-0.16669 0.60578,-0.12892 0.42817,0.85353 -0.1022,0.56536 -0.3276,1.30593 -0.50087,1.6457 l -0.31505,0.61777 z m -48.87962,-32.13035 c -2.14711,-4.94192 -3.27383,-5.82058 -7.4765,-5.83048 -2.128,-0.005 -2.61812,0.0815 -3.57188,0.63024 -3.76479,2.16618 -9.37001,0.27254 -8.12074,-2.74346 0.56315,-1.35956 1.29304,-1.46015 6.96317,-0.95965 7.48098,0.66034 8.28802,0.81649 9.90125,1.91578 1.80457,1.22968 2.82331,2.81624 3.7861,5.89635 0.92618,2.96298 0.92762,2.98095 0.28618,3.56145 -0.48084,0.43515 -0.54305,0.34822 -1.76758,-2.47023 z"
         id="path2"
         inkscape:label="Carrito"
         sodipodi:nodetypes="cssscsscsscssssscscsssssssssscccssssccssssssssssssssssscscssscscccsssccsscssscsssccsssccssssssssssssssscssccsssssssscscscsssccsssssscscccscsccsscccscssccssccssssccccccccssscsscsssscsscscssscsscccccscs" /></g></g></svg>
