<?xml version="1.0" encoding="UTF-8" standalone="no"?>
<!-- Created with Inkscape (http://www.inkscape.org/) -->

<svg
   width="1165.7932"
   height="270.59412"
   viewBox="0 0 308.44944 71.594693"
   version="1.1"
   id="svg1"
   xml:space="preserve"
   xmlns="http://www.w3.org/2000/svg"
   xmlns:svg="http://www.w3.org/2000/svg"><defs
     id="defs1"><linearGradient
       id="linearGradient3"><stop
         style="stop-color:#000000;stop-opacity:1;"
         offset="0"
         id="stop3" /><stop
         style="stop-color:#000000;stop-opacity:0;"
         offset="1"
         id="stop4" /></linearGradient></defs><g
     id="layer1"
     transform="translate(-131.25001,-13.36783)"
     style="display:inline"><g
       id="g1"
       transform="translate(4.2263907,-95.285899)"><path
         d="m 235.43867,171.55902 q -0.54227,0 -0.83965,-0.29737 -0.27988,-0.31487 -0.27988,-0.85714 v -9.44606 h -3.41108 q -0.45481,0 -0.7172,-0.2449 -0.24489,-0.26239 -0.24489,-0.69971 0,-0.45481 0.24489,-0.68221 0.26239,-0.2449 0.7172,-0.2449 h 9.06122 q 0.45481,0 0.69971,0.2449 0.26239,0.2274 0.26239,0.68221 0,0.43732 -0.26239,0.69971 -0.2449,0.2449 -0.69971,0.2449 h -3.41107 v 9.44606 q 0,0.54227 -0.27989,0.85714 -0.27988,0.29737 -0.83965,0.29737 z m 11.89505,0.035 q -1.27697,0 -2.25656,-0.33236 -0.9621,-0.33236 -1.62682,-0.97959 -0.66473,-0.66473 -0.99709,-1.64432 -0.33236,-0.97959 -0.33236,-2.27405 v -6.27988 q 0,-0.57726 0.27988,-0.85714 0.29738,-0.27988 0.83965,-0.27988 0.54228,0 0.82216,0.27988 0.29738,0.27988 0.29738,0.85714 v 6.26239 q 0,1.66181 0.75218,2.50146 0.76968,0.82215 2.22158,0.82215 1.45189,0 2.20408,-0.82215 0.75218,-0.83965 0.75218,-2.50146 v -6.26239 q 0,-0.57726 0.27988,-0.85714 0.29738,-0.27988 0.83965,-0.27988 0.52479,0 0.80467,0.27988 0.29737,0.27988 0.29737,0.85714 v 6.27988 q 0,1.71429 -0.59475,2.8863 -0.57726,1.17201 -1.73177,1.76676 -1.15452,0.57726 -2.85131,0.57726 z m 17.42274,-0.035 q -0.4723,0 -0.78717,-0.20991 -0.29738,-0.2274 -0.4898,-0.66472 l -4.56559,-10.25072 q -0.19242,-0.43732 -0.10496,-0.76968 0.0875,-0.33236 0.36735,-0.52478 0.27988,-0.19242 0.66472,-0.19242 0.50729,0 0.75219,0.2274 0.26239,0.20991 0.43731,0.64723 l 4.14577,9.60349 h -0.75218 l 4.12827,-9.62098 q 0.19242,-0.41983 0.45481,-0.62974 0.2624,-0.2274 0.7347,-0.2274 0.38484,0 0.62974,0.19242 0.26239,0.19242 0.33236,0.52478 0.07,0.33236 -0.12245,0.76968 l -4.5656,10.25072 q -0.19242,0.43732 -0.48979,0.66472 -0.27989,0.20991 -0.76968,0.20991 z m 8.76383,-0.13994 q -0.57726,0 -0.89213,-0.29737 -0.29737,-0.31487 -0.29737,-0.89213 v -9.95335 q 0,-0.57726 0.29737,-0.87463 0.31487,-0.31487 0.89213,-0.31487 h 6.24489 q 0.43732,0 0.66473,0.2274 0.24489,0.22741 0.24489,0.64723 0,0.43732 -0.24489,0.68222 -0.22741,0.2274 -0.66473,0.2274 h -5.28279 v 3.39359 h 4.89795 q 0.45482,0 0.68222,0.2274 0.22741,0.22741 0.22741,0.66473 0,0.43731 -0.22741,0.66472 -0.2274,0.2274 -0.68222,0.2274 h -4.89795 v 3.58601 h 5.28279 q 0.43732,0 0.66473,0.2274 0.24489,0.22741 0.24489,0.66472 0,0.43732 -0.24489,0.66473 -0.22741,0.2274 -0.66473,0.2274 z m 10.37318,0.13994 q -0.54228,0 -0.83965,-0.29737 -0.27989,-0.31487 -0.27989,-0.85714 v -10.18076 q 0,-0.55976 0.29738,-0.83965 0.29737,-0.29737 0.83965,-0.29737 h 4.21574 q 2.02915,0 3.13119,0.97959 1.10204,0.9621 1.10204,2.71137 0,1.13702 -0.50729,1.95918 -0.48979,0.82216 -1.4344,1.25948 -0.9446,0.43731 -2.29154,0.43731 l 0.15743,-0.26239 h 0.57726 q 0.7172,0 1.24198,0.34986 0.54228,0.34985 0.94461,1.10204 l 1.31195,2.43148 q 0.20991,0.36735 0.19242,0.7172 -0.0175,0.34986 -0.26239,0.57726 -0.2449,0.20991 -0.7172,0.20991 -0.4723,0 -0.76968,-0.19242 -0.29737,-0.20991 -0.52478,-0.62973 l -1.76676,-3.25364 q -0.31487,-0.59476 -0.75219,-0.78718 -0.41982,-0.20991 -1.08455,-0.20991 h -1.6618 v 3.91837 q 0,0.54227 -0.27989,0.85714 -0.27988,0.29737 -0.83964,0.29737 z m 1.11953,-6.73469 h 2.72886 q 1.207,0 1.81924,-0.48979 0.62974,-0.50729 0.62974,-1.50437 0,-0.97959 -0.62974,-1.46939 -0.61224,-0.50729 -1.81924,-0.50729 H 285.013 Z m 10.95044,6.59475 q -0.57726,0 -0.89212,-0.29737 -0.29738,-0.31487 -0.29738,-0.89213 v -9.95335 q 0,-0.57726 0.29738,-0.87463 0.31486,-0.31487 0.89212,-0.31487 h 3.39359 q 3.09621,0 4.7755,1.59183 1.6968,1.59184 1.6968,4.5656 0,1.48688 -0.43732,2.6414 -0.41983,1.13702 -1.25948,1.92419 -0.82215,0.78718 -2.02915,1.207 -1.1895,0.40233 -2.74635,0.40233 z m 1.04957,-1.85422 h 2.20408 q 1.08454,0 1.87171,-0.26239 0.80467,-0.27989 1.32945,-0.80467 0.54227,-0.54227 0.80466,-1.34694 0.26239,-0.82215 0.26239,-1.9067 0,-2.1691 -1.06705,-3.23615 -1.06705,-1.06706 -3.20116,-1.06706 h -2.20408 z m 16.21571,2.02915 q -1.27696,0 -2.25656,-0.33236 -0.96209,-0.33236 -1.62682,-0.97959 -0.66472,-0.66473 -0.99708,-1.64432 -0.33236,-0.97959 -0.33236,-2.27405 v -6.27988 q 0,-0.57726 0.27988,-0.85714 0.29738,-0.27988 0.83965,-0.27988 0.54227,0 0.82216,0.27988 0.29737,0.27988 0.29737,0.85714 v 6.26239 q 0,1.66181 0.75219,2.50146 0.76968,0.82215 2.22157,0.82215 1.4519,0 2.20408,-0.82215 0.75219,-0.83965 0.75219,-2.50146 v -6.26239 q 0,-0.57726 0.27988,-0.85714 0.29738,-0.27988 0.83965,-0.27988 0.52478,0 0.80467,0.27988 0.29737,0.27988 0.29737,0.85714 v 6.27988 q 0,1.71429 -0.59475,2.8863 -0.57726,1.17201 -1.73178,1.76676 -1.15451,0.57726 -2.85131,0.57726 z m 8.9213,-0.17493 q -0.54228,0 -0.83965,-0.29737 -0.29738,-0.31487 -0.29738,-0.85715 v -10.09328 q 0,-0.55977 0.27988,-0.83965 0.29738,-0.29738 0.83965,-0.29738 0.54228,0 0.82216,0.29738 0.29738,0.27988 0.29738,0.83965 v 9.3411 h 5.07288 q 0.4723,0 0.7172,0.2449 0.26239,0.24489 0.26239,0.6997 0,0.45481 -0.26239,0.7172 -0.2449,0.2449 -0.7172,0.2449 z m 9.88338,0 q -0.57726,0 -0.89213,-0.29737 -0.29738,-0.31487 -0.29738,-0.89213 v -9.95335 q 0,-0.57726 0.29738,-0.87463 0.31487,-0.31487 0.89213,-0.31487 h 6.24489 q 0.43732,0 0.66472,0.2274 0.2449,0.22741 0.2449,0.64723 0,0.43732 -0.2449,0.68222 -0.2274,0.2274 -0.66472,0.2274 h -5.28279 v 3.39359 h 4.89795 q 0.45481,0 0.68222,0.2274 0.2274,0.22741 0.2274,0.66473 0,0.43731 -0.2274,0.66472 -0.22741,0.2274 -0.68222,0.2274 h -4.89795 v 3.58601 h 5.28279 q 0.43732,0 0.66472,0.2274 0.2449,0.22741 0.2449,0.66472 0,0.43732 -0.2449,0.66473 -0.2274,0.2274 -0.66472,0.2274 z m 10.37316,0.13994 q -0.54227,0 -0.83964,-0.29737 -0.27989,-0.31487 -0.27989,-0.85714 v -10.18076 q 0,-0.55976 0.29738,-0.83965 0.29737,-0.29737 0.83965,-0.29737 h 4.21574 q 2.02915,0 3.13119,0.97959 1.10204,0.9621 1.10204,2.71137 0,1.13702 -0.50729,1.95918 -0.48979,0.82216 -1.4344,1.25948 -0.9446,0.43731 -2.29154,0.43731 l 0.15743,-0.26239 h 0.57726 q 0.7172,0 1.24198,0.34986 0.54228,0.34985 0.94461,1.10204 l 1.31195,2.43148 q 0.20991,0.36735 0.19242,0.7172 -0.0175,0.34986 -0.26239,0.57726 -0.2449,0.20991 -0.7172,0.20991 -0.4723,0 -0.76968,-0.19242 -0.29737,-0.20991 -0.52478,-0.62973 l -1.76676,-3.25364 q -0.31487,-0.59476 -0.75219,-0.78718 -0.41982,-0.20991 -1.08455,-0.20991 h -1.6618 v 3.91837 q 0,0.54227 -0.27989,0.85714 -0.27988,0.29737 -0.83965,0.29737 z m 1.11954,-6.73469 h 2.72886 q 1.207,0 1.81924,-0.48979 0.62974,-0.50729 0.62974,-1.50437 0,-0.97959 -0.62974,-1.46939 -0.61224,-0.50729 -1.81924,-0.50729 h -2.72886 z m 10.88047,6.73469 q -0.54227,0 -0.83965,-0.29737 -0.27988,-0.31487 -0.27988,-0.85714 v -10.3032 q 0,-0.55977 0.27988,-0.85715 0.29738,-0.29737 0.83965,-0.29737 0.54228,0 0.82216,0.29737 0.29738,0.29738 0.29738,0.85715 v 10.3032 q 0,0.54227 -0.27989,0.85714 -0.27988,0.29737 -0.83965,0.29737 z m 0.89213,-13.62681 q -0.20991,0.22741 -0.4723,0.2449 -0.2449,0 -0.45481,-0.13994 -0.19242,-0.15744 -0.26239,-0.38484 -0.0525,-0.22741 0.10495,-0.47231 l 1.36443,-2.01166 q 0.19242,-0.29737 0.45481,-0.34985 0.27989,-0.07 0.54228,0.035 0.26239,0.0875 0.41982,0.29737 0.17493,0.19242 0.19242,0.45481 0.0175,0.2449 -0.20991,0.4898 z m 3.04373,13.62681 q -0.41983,0 -0.68222,-0.19242 -0.2449,-0.19242 -0.29738,-0.50728 -0.0525,-0.33237 0.12245,-0.7347 l 4.61808,-10.23323 q 0.2274,-0.50729 0.54227,-0.7172 0.33236,-0.2274 0.75219,-0.2274 0.40233,0 0.7172,0.2274 0.33236,0.20991 0.55976,0.7172 l 4.63557,10.23323 q 0.19242,0.40233 0.13994,0.7347 -0.0525,0.33236 -0.29737,0.52478 -0.2449,0.17492 -0.64723,0.17492 -0.4898,0 -0.76968,-0.2274 -0.26239,-0.2449 -0.47231,-0.73469 l -1.13702,-2.6414 0.9446,0.61224 h -7.38192 l 0.94461,-0.61224 -1.11953,2.6414 q -0.22741,0.50728 -0.47231,0.73469 -0.24489,0.2274 -0.6997,0.2274 z m 5.0204,-10.04081 -2.44898,5.82507 -0.45481,-0.55976 h 5.84256 l -0.43731,0.55976 -2.46647,-5.82507 z m 18.13991,10.0758 q -1.78425,0 -3.13119,-0.78717 -1.32944,-0.78717 -2.06414,-2.20408 -0.73469,-1.4344 -0.73469,-3.3586 0,-1.45189 0.41982,-2.60641 0.41983,-1.17201 1.18951,-1.99417 0.78717,-0.83965 1.87172,-1.27697 1.10204,-0.45481 2.44897,-0.45481 1.80175,0 3.1312,0.78717 1.32944,0.76968 2.06414,2.18659 0.73469,1.41691 0.73469,3.34111 0,1.45189 -0.41983,2.6239 -0.41982,1.17201 -1.20699,2.01166 -0.76968,0.83965 -1.87172,1.29446 -1.08455,0.43732 -2.43149,0.43732 z m 0,-1.9242 q 1.13703,0 1.9242,-0.52478 0.80467,-0.52478 1.22449,-1.52186 0.43732,-0.99709 0.43732,-2.37901 0,-2.09912 -0.94461,-3.25364 -0.92711,-1.15452 -2.6414,-1.15452 -1.11953,0 -1.92419,0.52478 -0.80467,0.50729 -1.24198,1.50437 -0.41983,0.97959 -0.41983,2.37901 0,2.08163 0.94461,3.25364 0.9446,1.17201 2.64139,1.17201 z m 9.25365,1.88921 q -0.50728,0 -0.78717,-0.27988 -0.26239,-0.27988 -0.26239,-0.80466 v -10.40816 q 0,-0.54227 0.26239,-0.82216 0.27989,-0.29737 0.7172,-0.29737 0.40234,0 0.59475,0.15743 0.20992,0.13994 0.4898,0.4898 l 6.6997,8.69387 h -0.45481 v -8.27405 q 0,-0.50729 0.2624,-0.78717 0.27988,-0.27988 0.78717,-0.27988 0.50728,0 0.76968,0.27988 0.26239,0.27988 0.26239,0.78717 v 10.49562 q 0,0.4898 -0.2449,0.76968 -0.2449,0.27988 -0.66472,0.27988 -0.40234,0 -0.64723,-0.15743 -0.22741,-0.15743 -0.50729,-0.50729 l -6.68221,-8.69387 h 0.43731 v 8.27405 q 0,0.52478 -0.26239,0.80466 -0.26239,0.27988 -0.76968,0.27988 z m 13.17199,-0.13994 q -0.54228,0 -0.83965,-0.29737 -0.29738,-0.31487 -0.29738,-0.85715 v -10.09328 q 0,-0.55977 0.27988,-0.83965 0.29738,-0.29738 0.83965,-0.29738 0.54228,0 0.82216,0.29738 0.29738,0.27988 0.29738,0.83965 v 9.3411 h 5.07288 q 0.4723,0 0.7172,0.2449 0.26239,0.24489 0.26239,0.6997 0,0.45481 -0.26239,0.7172 -0.2449,0.2449 -0.7172,0.2449 z m 9.81341,0.13994 q -0.54228,0 -0.83965,-0.29737 -0.27989,-0.31487 -0.27989,-0.85714 v -10.3032 q 0,-0.55977 0.27989,-0.85715 0.29737,-0.29737 0.83965,-0.29737 0.54227,0 0.82215,0.29737 0.29738,0.29738 0.29738,0.85715 v 10.3032 q 0,0.54227 -0.27989,0.85714 -0.27988,0.29737 -0.83964,0.29737 z m 4.86296,0 q -0.50729,0 -0.78717,-0.27988 -0.26239,-0.27988 -0.26239,-0.80466 v -10.40816 q 0,-0.54227 0.26239,-0.82216 0.27988,-0.29737 0.7172,-0.29737 0.40233,0 0.59475,0.15743 0.20992,0.13994 0.4898,0.4898 l 6.6997,8.69387 h -0.45481 v -8.27405 q 0,-0.50729 0.26239,-0.78717 0.27989,-0.27988 0.78717,-0.27988 0.50729,0 0.76968,0.27988 0.26239,0.27988 0.26239,0.78717 v 10.49562 q 0,0.4898 -0.24489,0.76968 -0.2449,0.27988 -0.66473,0.27988 -0.40233,0 -0.64723,-0.15743 -0.2274,-0.15743 -0.50728,-0.50729 l -6.68222,-8.69387 h 0.43732 v 8.27405 q 0,0.52478 -0.26239,0.80466 -0.26239,0.27988 -0.76968,0.27988 z m 13.22446,-0.13994 q -0.57726,0 -0.89213,-0.29737 -0.29737,-0.31487 -0.29737,-0.89213 v -9.95335 q 0,-0.57726 0.29737,-0.87463 0.31487,-0.31487 0.89213,-0.31487 h 6.2449 q 0.43731,0 0.66472,0.2274 0.2449,0.22741 0.2449,0.64723 0,0.43732 -0.2449,0.68222 -0.22741,0.2274 -0.66472,0.2274 h -5.2828 v 3.39359 h 4.89796 q 0.45481,0 0.68221,0.2274 0.22741,0.22741 0.22741,0.66473 0,0.43731 -0.22741,0.66472 -0.2274,0.2274 -0.68221,0.2274 h -4.89796 v 3.58601 h 5.2828 q 0.43731,0 0.66472,0.2274 0.2449,0.22741 0.2449,0.66472 0,0.43732 -0.2449,0.66473 -0.22741,0.2274 -0.66472,0.2274 z"
         id="text4"
         style="font-weight:bold;font-size:17.4927px;font-family:Nunito;-inkscape-font-specification:'Nunito, Bold';fill:#ff6600;stroke-width:0.238011"
         transform="scale(0.99171278,1.0083565)"
         aria-label="TU VERDULERÍA ONLINE" /><path
         d="m 117.66648,31.904499 q -1.0573,0 -1.61705,-0.590847 -0.55975,-0.590847 -0.55975,-1.648151 V 11.660222 q 0,-1.057305 0.59084,-1.648152 0.62195,-0.5908468 1.67925,-0.5908468 0.93292,0 1.46157,0.3731664 0.55975,0.3420694 1.02621,1.2127904 l 7.18345,13.123019 h -1.0573 l 7.18345,-13.123019 q 0.46646,-0.870721 0.99511,-1.2127904 0.55975,-0.3731664 1.46157,-0.3731664 1.0573,0 1.61705,0.5908468 0.59085,0.590847 0.59085,1.648152 v 18.005279 q 0,1.057304 -0.55975,1.648151 -0.55975,0.590847 -1.61705,0.590847 -1.05731,0 -1.64815,-0.590847 -0.55975,-0.590847 -0.55975,-1.648151 V 17.071134 h 0.68413 l -5.78408,10.355368 q -0.37316,0.590847 -0.80852,0.901819 -0.40427,0.279875 -1.0884,0.279875 -0.68414,0 -1.1195,-0.310972 -0.43536,-0.310972 -0.77743,-0.870722 l -5.84628,-10.386465 h 0.74634 v 12.625464 q 0,1.057304 -0.55975,1.648151 -0.52866,0.590847 -1.61706,0.590847 z m 35.17092,0.06219 q -3.23411,0 -5.69079,-1.399374 -2.42558,-1.430471 -3.79386,-3.980441 -1.33718,-2.549971 -1.33718,-5.939565 0,-2.581068 0.74634,-4.633483 0.77743,-2.083513 2.2079,-3.545081 1.43047,-1.492666 3.42069,-2.301193 2.02132,-0.8085272 4.4469,-0.8085272 3.2963,0 5.72188,1.3993742 2.42558,1.399374 3.76276,3.949344 1.36828,2.518873 1.36828,5.908468 0,2.581068 -0.77743,4.66458 -0.77743,2.083513 -2.2079,3.576178 -1.43047,1.492666 -3.42069,2.301193 -1.99022,0.808527 -4.4469,0.808527 z m 0,-4.10483 q 1.83473,0 3.10972,-0.839624 1.30608,-0.870722 1.99022,-2.487776 0.71523,-1.648152 0.71523,-3.88715 0,-3.420693 -1.52376,-5.286525 -1.52376,-1.896929 -4.29141,-1.896929 -1.80364,0 -3.10972,0.839625 -1.30608,0.839624 -1.99022,2.456678 -0.68414,1.617055 -0.68414,3.887151 0,3.389594 1.52376,5.317621 1.52376,1.896929 4.26032,1.896929 z m 17.10344,3.762761 q -1.21279,0 -1.86583,-0.653041 -0.65304,-0.653041 -0.65304,-1.865832 v -16.88578 q 0,-1.212791 0.65304,-1.865832 0.65304,-0.653041 1.86583,-0.653041 h 6.06396 q 5.62859,0 8.67612,2.860942 3.07862,2.829846 3.07862,8.085273 0,2.643262 -0.80853,4.695677 -0.77743,2.021318 -2.27009,3.420692 -1.49267,1.399374 -3.66947,2.145707 -2.17681,0.715235 -5.00665,0.715235 z m 2.3012,-3.949344 h 3.48288 q 1.77254,0 3.07863,-0.435361 1.30608,-0.435361 2.1768,-1.306082 0.87072,-0.870722 1.30608,-2.176804 0.43536,-1.33718 0.43536,-3.10972 0,-3.545081 -1.77254,-5.255427 -1.74144,-1.741444 -5.22433,-1.741444 h -3.48288 z M 201.66,31.966693 q -3.23411,0 -5.69079,-1.399374 -2.42558,-1.430471 -3.79386,-3.980441 -1.33718,-2.549971 -1.33718,-5.939565 0,-2.581068 0.74633,-4.633483 0.77743,-2.083513 2.2079,-3.545081 1.43048,-1.492666 3.4207,-2.301193 2.02131,-0.8085272 4.4469,-0.8085272 3.2963,0 5.72188,1.3993742 2.42558,1.399374 3.76276,3.949344 1.36828,2.518873 1.36828,5.908468 0,2.581068 -0.77743,4.66458 -0.77743,2.083513 -2.2079,3.576178 -1.43047,1.492666 -3.42069,2.301193 -1.99023,0.808527 -4.4469,0.808527 z m 0,-4.10483 q 1.83473,0 3.10972,-0.839624 1.30608,-0.870722 1.99022,-2.487776 0.71523,-1.648152 0.71523,-3.88715 0,-3.420693 -1.52376,-5.286525 -1.52376,-1.896929 -4.29141,-1.896929 -1.80364,0 -3.10972,0.839625 -1.30609,0.839624 -1.99023,2.456678 -0.68413,1.617055 -0.68413,3.887151 0,3.389594 1.52376,5.317621 1.52376,1.896929 4.26032,1.896929 z m 25.68624,4.042636 q -1.18169,0 -1.80363,-0.653041 -0.62195,-0.653041 -0.62195,-1.834735 V 11.908999 q 0,-1.181693 0.62195,-1.834735 0.62194,-0.6530408 1.80363,-0.6530408 1.1506,0 1.77254,0.6530408 0.62195,0.653042 0.62195,1.834735 v 6.592607 h 10.19988 v -6.592607 q 0,-1.181693 0.62194,-1.834735 0.62195,-0.6530408 1.77254,-0.6530408 1.1817,0 1.80364,0.6530408 0.62195,0.653042 0.62195,1.834735 v 17.507724 q 0,1.181694 -0.62195,1.834735 -0.62194,0.653041 -1.80364,0.653041 -1.15059,0 -1.77254,-0.653041 -0.62194,-0.653041 -0.62194,-1.834735 v -6.903578 h -10.19988 v 6.903578 q 0,1.181694 -0.62195,1.834735 -0.59084,0.653041 -1.77254,0.653041 z m 31.22162,0.06219 q -2.33229,0 -4.13593,-0.590846 -1.77254,-0.621944 -2.98533,-1.803638 -1.21279,-1.181694 -1.83473,-2.954234 -0.59085,-1.803638 -0.59085,-4.167025 V 11.877902 q 0,-1.212791 0.62194,-1.834735 0.62195,-0.6219438 1.80364,-0.6219438 1.1506,0 1.77254,0.6219438 0.62195,0.621944 0.62195,1.834735 v 10.604145 q 0,2.67436 1.21279,4.042636 1.21279,1.33718 3.51398,1.33718 2.30119,0 3.48289,-1.33718 1.21279,-1.368276 1.21279,-4.042636 V 11.877902 q 0,-1.212791 0.62194,-1.834735 0.62195,-0.6219438 1.77254,-0.6219438 1.1506,0 1.74145,0.6219438 0.62194,0.621944 0.62194,1.834735 V 22.45095 q 0,3.140817 -1.0884,5.286524 -1.05731,2.11461 -3.17192,3.171915 -2.08351,1.057304 -5.19323,1.057304 z m 16.23274,-0.342069 q -1.21279,0 -1.86583,-0.653041 -0.65304,-0.653041 -0.65304,-1.865832 v -16.88578 q 0,-1.212791 0.65304,-1.865832 0.65304,-0.653041 1.86583,-0.653041 h 10.85293 q 0.93291,0 1.39937,0.497555 0.49756,0.466458 0.49756,1.368277 0,0.932916 -0.49756,1.430471 -0.46646,0.466458 -1.39937,0.466458 h -8.76941 v 5.131038 h 8.05417 q 0.96401,0 1.43047,0.497555 0.49756,0.466458 0.49756,1.399375 0,0.932916 -0.49756,1.430471 -0.46646,0.466458 -1.43047,0.466458 h -8.05417 v 5.473107 h 8.76941 q 0.93291,0 1.39937,0.497555 0.49756,0.466458 0.49756,1.368277 0,0.932916 -0.49756,1.430471 -0.46646,0.466458 -1.39937,0.466458 z m 18.72049,0.279875 q -1.18169,0 -1.80363,-0.653041 -0.62195,-0.653041 -0.62195,-1.834735 V 12.157777 q 0,-1.212791 0.62195,-1.834735 0.65304,-0.621944 1.83473,-0.621944 h 7.55662 q 3.66947,0 5.65969,1.77254 1.99022,1.772541 1.99022,4.944455 0,2.052415 -0.90182,3.545081 -0.90182,1.492666 -2.61216,2.301193 -1.67925,0.808527 -4.13593,0.808527 l 0.24878,-0.528652 h 1.27498 q 1.30609,0 2.2701,0.653041 0.99511,0.621944 1.71035,1.928026 l 1.92802,3.576178 q 0.43536,0.77743 0.40427,1.523763 -0.0311,0.746333 -0.55975,1.212791 -0.52866,0.466458 -1.55486,0.466458 -1.02621,0 -1.67925,-0.435361 -0.62195,-0.435361 -1.1195,-1.337179 l -2.98533,-5.504205 q -0.46646,-0.870721 -1.1506,-1.181693 -0.65304,-0.310972 -1.61705,-0.310972 h -2.36339 v 6.281634 q 0,1.181694 -0.62195,1.834735 -0.59084,0.653041 -1.77254,0.653041 z m 2.39449,-12.252297 h 4.32251 q 1.92803,0 2.89204,-0.77743 0.99511,-0.77743 0.99511,-2.33229 0,-1.523763 -0.99511,-2.301193 -0.96401,-0.77743 -2.89204,-0.77743 h -4.32251 z m 23.85151,12.252297 q -1.18169,0 -1.80364,-0.653041 -0.62194,-0.653041 -0.62194,-1.834735 V 13.68154 h -5.5042 q -0.96402,0 -1.49267,-0.528653 -0.52865,-0.528652 -0.52865,-1.461568 0,-0.964013 0.52865,-1.461569 0.52865,-0.528652 1.49267,-0.528652 h 15.82847 q 0.96401,0 1.49267,0.528652 0.52865,0.497556 0.52865,1.461569 0,0.932916 -0.52865,1.461568 -0.52866,0.528653 -1.49267,0.528653 h -5.5042 v 15.735183 q 0,1.181694 -0.62195,1.834735 -0.59084,0.653041 -1.77254,0.653041 z m 10.16877,0 q -0.87073,0 -1.43048,-0.404264 -0.52865,-0.404263 -0.68413,-1.088402 -0.12439,-0.684138 0.27987,-1.523762 l 7.96088,-17.44553 q 0.49756,-1.057305 1.1817,-1.5237626 0.68414,-0.4975552 1.58595,-0.4975552 0.90182,0 1.58596,0.4975552 0.68414,0.4664576 1.1506,1.5237626 l 8.02308,17.44553 q 0.40426,0.839624 0.27987,1.55486 -0.0933,0.684138 -0.62194,1.088402 -0.52866,0.373166 -1.36828,0.373166 -1.0573,0 -1.64815,-0.497555 -0.55975,-0.497555 -0.99511,-1.55486 l -1.86583,-4.322511 1.92802,1.33718 h -12.96753 l 1.92803,-1.33718 -1.83474,4.322511 q -0.46646,1.088402 -0.99511,1.585957 -0.49755,0.466458 -1.49266,0.466458 z m 8.8316,-17.072363 -3.98044,9.484646 -0.83963,-1.212791 h 9.73343 l -0.83963,1.212791 -4.01154,-9.484646 z"
         id="text3"
         style="font-weight:800;font-size:31.0972px;font-family:Nunito;-inkscape-font-specification:'Nunito, Ultra-Bold';fill:#026939;stroke:none;stroke-width:0.24;stroke-opacity:1"
         transform="matrix(0.88038167,0,0,1.135871,127.02362,108.65373)"
         aria-label="MODO HUERTA" /><path
         style="display:inline;fill:#000000"
         d="m 158.0661,179.68206 c -1.44344,-0.9154 -2.08326,-2.14047 -2.08326,-3.98882 0,-1.38828 0.64235,-3.04517 1.43587,-3.70374 0.67752,-0.56229 0.49796,-0.67511 -1.15014,-0.72265 -1.85776,-0.0536 -2.51923,-0.36133 -3.20932,-1.49309 -1.05185,-1.72509 -0.32476,-3.24252 2.24996,-4.69559 0.74838,-0.42237 1.63548,-1.1396 1.97132,-1.59385 0.62635,-0.84718 2.74535,-1.97845 3.19052,-1.70332 0.13683,0.0846 1.80607,-0.32439 3.70943,-0.9088 7.27269,-2.23301 10.57841,-2.77826 18.65757,-3.07743 3.35019,-0.12405 5.22036,-0.0433 8.96466,0.38703 4.98768,0.57325 5.71971,0.83026 5.71971,2.00813 0,1.49484 -2.02391,2.3354 -6.74687,2.80206 -5.96995,0.58987 -26.66753,4.47226 -27.31984,5.12457 -0.32669,0.32669 0.14566,0.35599 2.18442,0.1355 6.42219,-0.69454 31.84903,-0.46021 34.61371,0.319 0.70191,0.19783 1.26948,0.47875 1.26125,0.62427 -0.008,0.14552 -0.76111,0.32411 -1.67308,0.39687 l -1.65813,0.1323 0.80983,0.44392 c 2.86568,1.57088 3.73098,4.87975 1.93642,7.40472 -0.66147,0.9307 -2.52162,1.80865 -3.83206,1.80865 -1.39031,0 -3.26449,-0.9749 -3.99884,-2.08009 -1.60338,-2.41309 -0.79555,-5.61222 1.71121,-6.77661 0.61847,-0.28727 1.12448,-0.61469 1.12448,-0.7276 0,-0.62758 -32.75604,0.49677 -33.45656,1.1484 -0.1563,0.1454 -0.13477,0.23381 0.0569,0.23381 0.4114,0 2.1231,1.51824 2.49486,2.21288 0.83985,1.56927 0.69291,3.77848 -0.3486,5.24115 -1.35266,1.89962 -4.48933,2.39668 -6.61546,1.04833 z m 3.68063,-1.3784 c 2.13708,-0.74499 2.22641,-3.90957 0.14048,-4.97632 -1.05471,-0.53939 -1.9374,-0.34669 -2.92197,0.63788 -0.83892,0.83892 -0.91888,1.04191 -0.78971,2.00491 0.15139,1.12873 0.76064,2.00633 1.64377,2.36778 0.72823,0.29806 0.98736,0.29346 1.92743,-0.0342 z m -1.52001,-1.95187 c -0.50853,-0.61274 -0.22587,-1.33563 0.52224,-1.33563 0.49205,0 0.68034,0.15916 0.74713,0.63154 0.13241,0.93641 -0.69546,1.39561 -1.26937,0.70409 z m 38.52151,0.44443 c 1.41982,-1.1501 1.44979,-2.9825 0.0678,-4.14536 -1.18523,-0.9973 -2.42684,-0.92001 -3.56903,0.22218 -0.57038,0.57037 -0.89959,1.15614 -0.89959,1.60064 0,0.86976 0.64048,2.14671 1.25677,2.50566 0.73424,0.42766 2.51829,0.32375 3.14404,-0.18312 z m -2.39248,-1.81304 c -0.22442,-0.58483 0.45507,-1.28426 1.03242,-1.06271 0.26858,0.10306 0.40343,0.39629 0.35125,0.76378 -0.10551,0.74297 -1.12847,0.96397 -1.38367,0.29893 z m 1.96042,-6.44931 c -0.98784,-0.31636 -7.63328,-0.31636 -7.14375,0 0.21828,0.14107 2.06375,0.24644 4.10104,0.23416 2.26075,-0.0136 3.44642,-0.10487 3.04271,-0.23416 z M 162.9943,156.48006 c -0.66844,-0.35531 -1.03248,-0.37515 -2.30597,-0.12566 -1.24765,0.24442 -1.64602,0.22707 -2.27696,-0.0992 -0.89477,-0.46271 -1.19322,-1.10927 -3.49192,-7.56508 -1.13218,-3.17966 -1.89684,-4.91372 -2.44082,-5.5352 -0.72383,-0.82694 -0.77823,-1.0209 -0.63079,-2.24896 0.14131,-1.17705 -0.0399,-1.95188 -1.45919,-6.23875 -0.89129,-2.69214 -1.71842,-5.01978 -1.83805,-5.17254 -0.11964,-0.15276 -0.81635,-0.43122 -1.54826,-0.6188 -3.58562,-0.91897 -3.49581,-4.62924 0.15672,-6.47399 2.97633,-1.50323 9.45468,-3.37491 14.77691,-4.26924 2.18281,-0.36679 4.51097,-0.83197 5.17369,-1.03374 2.05754,-0.62643 6.82974,-1.02357 10.19801,-0.84868 5.92049,0.30742 7.12284,0.30025 11.88038,-0.0709 5.37253,-0.41914 16.01684,-0.53718 18.72468,-0.20765 1.28046,0.15583 2.00521,0.39795 2.54118,0.84893 l 0.74982,0.63094 1.0307,-0.53372 c 1.68546,-0.87277 4.60258,-0.18398 4.60258,1.08676 0,1.30451 -1.76977,1.97438 -3.16933,1.19962 -0.56322,-0.31178 -0.76697,-0.30552 -1.44355,0.0444 -0.55039,0.28462 -0.81786,0.31711 -0.88762,0.10782 -0.11971,-0.35912 -0.8495,-0.40464 -0.8495,-0.053 0,0.13561 -0.38696,0.52256 -0.8599,0.85989 -0.77335,0.55161 -1.23269,0.62665 -4.56406,0.74562 l -3.70417,0.1323 -0.19399,3.67908 c -0.1067,2.02349 -0.44265,5.04728 -0.74657,6.71954 -0.59877,3.29469 -0.55864,3.46838 0.80827,3.49845 0.3638,0.008 1.55443,0.17164 2.64583,0.36365 1.70794,0.30046 2.09905,0.2946 2.80758,-0.042 0.7615,-0.36179 0.92745,-0.711 2.21416,-4.65908 1.1265,-3.45651 2.62166,-6.78151 3.04945,-6.78151 0.10704,0 -0.73082,3.77896 -1.5652,7.05941 -0.72714,2.85886 -0.8523,4.18314 -0.42057,4.44996 0.47905,0.29607 0.27632,1.20502 -0.41079,1.84181 -0.51954,0.4815 -1.0415,1.83245 -2.26229,5.85534 -2.53175,8.34289 -3.62382,10.6914 -4.97159,10.6914 -0.8214,0 -0.90541,-0.46232 -0.1714,-0.94326 0.40938,-0.26824 0.77637,-0.86096 0.94915,-1.53298 0.15493,-0.6026 0.92195,-3.47689 1.70447,-6.38731 1.96635,-7.31338 1.94452,-7.1506 1.02094,-7.61313 -0.5903,-0.29562 -1.25958,-0.33074 -3.09326,-0.1623 -1.28699,0.11822 -2.56082,0.28503 -2.83074,0.3707 -0.57768,0.18335 -0.58496,0.20539 -1.30895,3.96515 -0.76086,3.95115 -0.57924,3.69082 -2.05364,2.94368 l -1.26832,-0.6427 0.30237,-3.00257 c 0.1663,-1.65142 0.21221,-3.10225 0.10203,-3.22407 -0.20362,-0.22512 -8.90457,0.26895 -9.32629,0.52958 -0.12664,0.0783 -0.16635,0.30887 -0.0882,0.51243 0.19019,0.49563 0.21143,0.50154 -1.99516,-0.55593 -2.24277,-1.07482 -2.56614,-1.11151 -3.47761,-0.39455 -0.37162,0.29231 -1.01275,0.58473 -1.42474,0.64982 -0.41199,0.0651 -1.73351,0.25753 -2.93672,0.42765 -1.20321,0.17012 -2.24682,0.40505 -2.31913,0.52206 -0.0723,0.117 0.22713,2.69172 0.66544,5.72158 0.4383,3.02987 0.7973,5.59815 0.79778,5.70729 4.7e-4,0.10914 1.66214,0.19844 3.69259,0.19844 h 3.69173 l 0.27611,0.99219 c 0.34814,1.25099 -0.0897,1.65007 -1.82316,1.66181 -0.66341,0.004 -2.09462,0.12346 -3.18047,0.26437 -1.6651,0.21607 -2.06356,0.36818 -2.5445,0.97135 -0.55572,0.69693 -0.58777,0.70368 -1.25758,0.2648 -0.37803,-0.24769 -0.94071,-0.45035 -1.25039,-0.45035 -1.11974,0 -5.96248,1.09772 -6.99618,1.58585 -1.62115,0.76554 -2.30135,0.84764 -3.175,0.38325 z m -2.66747,-3.45262 c 0.23018,-0.0883 0.41851,-0.29828 0.41851,-0.46655 0,-0.42095 -1.86291,-3.15439 -2.03352,-2.98378 -0.13453,0.13453 0.93162,3.61093 1.10741,3.61093 0.049,0 0.27741,-0.0723 0.5076,-0.1606 z m 10.20809,-1.72535 c 1.23693,-0.16776 2.32908,-0.3776 2.427,-0.46631 0.28302,-0.25637 -1.7405,-10.47858 -2.17061,-10.96528 -0.1543,-0.1746 -7.07049,1.017 -7.33618,1.26396 -0.0632,0.0588 2.43341,9.61628 2.72555,10.43379 0.0942,0.26354 0.40397,0.31945 1.11779,0.20172 0.54312,-0.0896 1.99953,-0.30012 3.23645,-0.46788 z m -3.32978,-14.40948 c 1.44284,-0.20484 2.66564,-0.41473 2.71734,-0.46643 0.0925,-0.0925 -1.9735,-12.90229 -2.10053,-13.02416 -0.0358,-0.0344 -1.13671,0.10846 -2.4464,0.31741 -3.26004,0.52013 -6.48229,1.41427 -6.48229,1.79876 0,0.38631 2.17968,8.11341 2.92771,10.37892 l 0.53713,1.62677 1.11185,-0.12941 c 0.61152,-0.0712 2.29235,-0.29701 3.73519,-0.50186 z m 12.27912,-1.28508 c 2.23,-0.19924 4.12201,-0.42973 4.20448,-0.51219 0.18578,-0.18579 -0.35723,-13.11974 -0.5593,-13.32181 -0.13981,-0.13981 -8.59448,0.59398 -10.43605,0.90575 -0.79045,0.13382 -0.8688,0.22327 -0.73875,0.84329 0.08,0.38148 0.39956,3.07484 0.7101,5.98526 0.31053,2.91042 0.61547,5.55956 0.67764,5.88698 0.1367,0.71992 0.37338,0.72811 6.14188,0.21272 z m 14.334,-0.89357 2.24895,-0.17905 0.33281,-1.98437 c 1.02052,-6.08482 1.65609,-11.21381 1.41897,-11.45093 -0.24504,-0.24505 -11.84777,0.15977 -12.11054,0.42254 -0.12242,0.12242 0.42751,13.18018 0.56445,13.40238 0.10085,0.16364 4.32583,0.0457 7.54536,-0.21057 z m -41.22052,-6.08524 c -0.11753,-0.79503 -0.19593,-0.86282 -0.81982,-0.70888 -1.08888,0.26869 -1.13841,0.47775 -0.47478,2.00423 0.34333,0.78971 0.72479,1.67397 0.8477,1.96501 0.17309,0.4099 0.26328,0.20118 0.40015,-0.92604 0.0972,-0.80036 0.11822,-1.85081 0.0467,-2.33432 z m 39.54614,24.7354 c -1.91057,-2.70119 -2.44594,-3.35108 -2.76056,-3.35108 -0.13698,0 -0.95134,1.12987 -1.80967,2.51082 -0.85833,1.38095 -1.63488,2.51205 -1.72566,2.51354 -0.25579,0.004 -4.02762,-15.72966 -3.87825,-16.17777 0.12806,-0.38419 15.02352,7.25334 15.02352,7.7032 0,0.11981 -0.32743,0.29469 -0.72761,0.38862 -1.64983,0.38722 -5.09323,1.54922 -5.09323,1.71874 0,0.10033 0.8848,1.42342 1.96623,2.94021 2.01958,2.83263 2.08492,3.0838 0.95896,3.6864 -0.33732,0.18053 -0.74264,-0.22042 -1.95373,-1.93268 z m 4.65094,-0.35847 c 0.25466,-0.0666 0.67138,-0.0666 0.92604,0 0.25466,0.0666 0.0463,0.121 -0.46302,0.121 -0.50932,0 -0.71768,-0.0545 -0.46302,-0.121 z m -1.07749,-2.33222 c -1.08111,-0.90969 -1.13254,-1.8534 -0.11314,-2.07616 0.40019,-0.0874 1.00391,-0.23748 1.34162,-0.3334 0.58683,-0.16669 0.60578,-0.12892 0.42817,0.85353 -0.1022,0.56536 -0.3276,1.30593 -0.50087,1.6457 l -0.31505,0.61777 z m -48.87962,-32.13035 c -2.14711,-4.94192 -3.27383,-5.82058 -7.4765,-5.83048 -2.128,-0.005 -2.61812,0.0815 -3.57188,0.63024 -3.76479,2.16618 -9.37001,0.27254 -8.12074,-2.74346 0.56315,-1.35956 1.29304,-1.46015 6.96317,-0.95965 7.48098,0.66034 8.28802,0.81649 9.90125,1.91578 1.80457,1.22968 2.82331,2.81624 3.7861,5.89635 0.92618,2.96298 0.92762,2.98095 0.28618,3.56145 -0.48084,0.43515 -0.54305,0.34822 -1.76758,-2.47023 z"
         id="path2" /></g></g></svg>
